<?xml version="1.0" encoding="utf-8"?>
<!-- Generator: Adobe Illustrator 16.0.0, SVG Export Plug-In . SVG Version: 6.00 Build 0)  -->
<!DOCTYPE svg PUBLIC "-//W3C//DTD SVG 1.1//EN" "http://www.w3.org/Graphics/SVG/1.1/DTD/svg11.dtd">
<svg version="1.1" id="Layer_1" xmlns="http://www.w3.org/2000/svg" xmlns:xlink="http://www.w3.org/1999/xlink" x="0px" y="0px"
	 width="25.5px" height="17.28px" viewBox="281.278 390.561 25.5 17.28" enable-background="new 281.278 390.561 25.5 17.28"
	 xml:space="preserve">
<g>
	<path fill="#FFFFFF" d="M281.668,393.801c-0.261-0.279-0.39-0.68-0.39-1.2v-0.42c0-0.52,0.129-0.92,0.39-1.2
		c0.26-0.279,0.75-0.42,1.47-0.42h21.78c0.72,0,1.209,0.141,1.47,0.42c0.26,0.28,0.391,0.681,0.391,1.2v0.42
		c0,0.52-0.131,0.92-0.391,1.2c-0.26,0.28-0.75,0.42-1.47,0.42h-21.78C282.418,394.221,281.928,394.081,281.668,393.801z
		 M281.668,407.421c-0.261-0.279-0.39-0.68-0.39-1.2v-0.42c0-0.52,0.129-0.92,0.39-1.2c0.26-0.279,0.75-0.42,1.47-0.42h21.78
		c0.72,0,1.209,0.141,1.47,0.42c0.26,0.28,0.391,0.681,0.391,1.2v0.42c0,0.521-0.131,0.921-0.391,1.2
		c-0.26,0.28-0.75,0.42-1.47,0.42h-21.78C282.418,407.841,281.928,407.701,281.668,407.421z"/>
</g>
</svg>
