<?xml version="1.0" encoding="utf-8"?>
<!-- Generator: Adobe Illustrator 16.0.0, SVG Export Plug-In . SVG Version: 6.00 Build 0)  -->
<!DOCTYPE svg PUBLIC "-//W3C//DTD SVG 1.1//EN" "http://www.w3.org/Graphics/SVG/1.1/DTD/svg11.dtd">
<svg version="1.1" id="Layer_1" xmlns="http://www.w3.org/2000/svg" xmlns:xlink="http://www.w3.org/1999/xlink" x="0px" y="0px"
	 width="164.933px" height="29.403px" viewBox="224.789 375.993 164.933 29.403"
	 enable-background="new 224.789 375.993 164.933 29.403" xml:space="preserve">
<g>
	<path fill="#F2673B" d="M228.248,398.517c0.41,0.905,0.955,1.683,1.633,2.334c0.679,0.65,1.47,1.159,2.375,1.526
		c0.905,0.368,1.895,0.551,2.97,0.551c0.989,0,1.852-0.098,2.587-0.297c0.734-0.196,1.371-0.459,1.908-0.784s1.004-0.706,1.4-1.146
		c0.396-0.438,0.735-0.897,1.018-1.378c0.027-0.028,0.127-0.028,0.297,0s0.353,0.106,0.551,0.233
		c0.198,0.127,0.375,0.297,0.53,0.509c0.155,0.212,0.233,0.488,0.233,0.827s-0.19,0.771-0.572,1.294
		c-0.381,0.522-0.933,1.018-1.654,1.483c-0.722,0.468-1.612,0.87-2.672,1.21c-1.061,0.339-2.27,0.508-3.626,0.508
		c-1.527,0-2.934-0.254-4.221-0.763c-1.286-0.51-2.389-1.23-3.308-2.163c-0.919-0.933-1.633-2.043-2.142-3.329
		c-0.508-1.287-0.764-2.708-0.764-4.264c0-1.526,0.255-2.947,0.764-4.262c0.509-1.315,1.215-2.445,2.121-3.393
		c0.905-0.948,1.979-1.69,3.224-2.228c1.244-0.537,2.601-0.806,4.071-0.806c1.414,0,2.7,0.241,3.86,0.722
		c1.159,0.481,2.148,1.166,2.968,2.057c0.82,0.891,1.457,1.965,1.909,3.223c0.452,1.26,0.679,2.652,0.679,4.179v0.253
		c0,0.397-0.085,0.651-0.254,0.764c-0.17,0.113-0.467,0.169-0.891,0.169h-15.693C227.604,396.623,227.837,397.612,228.248,398.517z
		 M241.46,393.174c-0.141-2.008-0.784-3.605-1.93-4.793c-1.145-1.188-2.665-1.781-4.559-1.781c-0.961,0-1.852,0.163-2.672,0.487
		c-0.82,0.326-1.547,0.778-2.185,1.357c-0.635,0.58-1.166,1.273-1.59,2.078c-0.424,0.806-0.707,1.69-0.849,2.652H241.46z"/>
	<path fill="#F2673B" d="M228.247,398.521c0.411,0.905,0.955,1.684,1.633,2.333c0.68,0.651,1.47,1.16,2.376,1.527
		c0.905,0.368,1.895,0.553,2.97,0.553c0.989,0,1.852-0.099,2.588-0.298c0.735-0.197,1.372-0.459,1.909-0.785
		c0.537-0.325,1.004-0.707,1.4-1.145c0.396-0.439,0.735-0.898,1.018-1.38c0.028-0.028,0.128-0.028,0.297,0
		c0.17,0.028,0.354,0.105,0.552,0.233c0.198,0.127,0.375,0.297,0.531,0.51c0.156,0.212,0.233,0.486,0.233,0.827
		c0,0.339-0.192,0.771-0.573,1.293c-0.382,0.523-0.934,1.018-1.654,1.485c-0.722,0.468-1.614,0.87-2.673,1.21
		c-1.061,0.338-2.271,0.508-3.628,0.508c-1.528,0-2.935-0.253-4.221-0.764c-1.288-0.509-2.391-1.229-3.309-2.163
		c-0.919-0.934-1.633-2.044-2.144-3.33c-0.508-1.288-0.763-2.708-0.763-4.264c0-1.527,0.254-2.948,0.763-4.263
		c0.51-1.315,1.216-2.446,2.122-3.394c0.905-0.948,1.979-1.69,3.225-2.228c1.243-0.538,2.602-0.807,4.072-0.807
		c1.415,0,2.701,0.241,3.861,0.721c1.159,0.481,2.149,1.167,2.97,2.058c0.819,0.891,1.456,1.965,1.91,3.224
		c0.452,1.259,0.678,2.652,0.678,4.18v0.253c0,0.396-0.086,0.651-0.254,0.765c-0.169,0.113-0.467,0.169-0.891,0.169h-15.697
		C227.603,396.626,227.836,397.615,228.247,398.521z M241.462,393.175c-0.142-2.008-0.785-3.606-1.93-4.795
		c-1.146-1.188-2.667-1.781-4.562-1.781c-0.961,0-1.854,0.163-2.672,0.487c-0.821,0.326-1.548,0.779-2.185,1.358
		c-0.637,0.58-1.167,1.273-1.591,2.079c-0.424,0.806-0.708,1.69-0.849,2.652H241.462z"/>
	<path fill="#3D3C3A" d="M255.463,402.381l6.024-15.824c0.311-0.821,0.615-1.365,0.912-1.634c0.297-0.268,0.658-0.402,1.082-0.402
		c0.481,0,0.834,0.12,1.061,0.36c0.226,0.241,0.325,0.389,0.297,0.446l-7.424,18.71c-0.143,0.368-0.333,0.644-0.573,0.826
		c-0.241,0.184-0.714,0.277-1.421,0.277s-1.16-0.079-1.358-0.233c-0.197-0.155-0.368-0.417-0.508-0.786l-7.509-18.794
		c-0.029-0.085,0.071-0.24,0.297-0.466c0.227-0.226,0.579-0.339,1.06-0.339c0.481,0,0.87,0.135,1.167,0.402
		c0.297,0.269,0.601,0.813,0.912,1.634L255.463,402.381z"/>
	<path fill="#3D3C3A" d="M281.089,392.114c0-1.753-0.489-3.09-1.464-4.009c-0.976-0.919-2.384-1.379-4.222-1.379
		c-1.641,0-2.984,0.36-4.03,1.082c-1.047,0.721-1.853,1.605-2.419,2.651c-0.34-0.056-0.601-0.134-0.785-0.234
		c-0.184-0.099-0.36-0.261-0.53-0.488c-0.169-0.226-0.255-0.523-0.255-0.891s0.177-0.813,0.531-1.336
		c0.352-0.523,0.875-1.032,1.569-1.527c0.694-0.494,1.556-0.919,2.588-1.272c1.032-0.354,2.213-0.531,3.542-0.531
		c2.574,0,4.582,0.694,6.024,2.079c1.443,1.386,2.164,3.309,2.164,5.77v12.726c0,0.057-0.092,0.122-0.275,0.191
		c-0.186,0.07-0.403,0.106-0.658,0.106c-0.48,0-0.891-0.169-1.231-0.509c-0.34-0.341-0.508-1.061-0.508-2.164v-0.764
		c-0.792,1.189-1.846,2.108-3.161,2.758c-1.315,0.65-2.779,0.977-4.391,0.977c-2.206,0-3.918-0.517-5.134-1.549
		c-1.216-1.033-1.825-2.397-1.825-4.094c0-2.377,1.167-4.088,3.501-5.134c2.333-1.045,5.847-1.625,10.542-1.739h0.425V392.114z
		 M273.833,403.06c1.046,0,2.008-0.155,2.885-0.466s1.641-0.743,2.291-1.295c0.65-0.551,1.159-1.201,1.527-1.95
		c0.367-0.751,0.553-1.578,0.553-2.482v-1.868l-1.189,0.042c-3.479,0.143-6.096,0.553-7.849,1.231
		c-1.754,0.679-2.631,1.824-2.631,3.437c0,1.018,0.388,1.831,1.167,2.439C271.365,402.757,272.447,403.06,273.833,403.06z"/>
	<path fill="#3D3C3A" d="M289.871,404.777c-0.228-0.182-0.339-0.529-0.339-1.039V376.29c0-0.056,0.09-0.12,0.274-0.191
		s0.404-0.106,0.658-0.106c0.481,0,0.906,0.17,1.273,0.508c0.368,0.34,0.551,1.062,0.551,2.165v25.072
		c0,0.51-0.112,0.857-0.338,1.039c-0.227,0.185-0.525,0.276-0.891,0.276h-0.296C290.394,405.054,290.096,404.962,289.871,404.777z"
		/>
	<path fill="#3D3C3A" d="M310.128,404.375c-1.145,0.679-2.511,1.018-4.094,1.018c-1.329,0-2.496-0.212-3.501-0.637
		c-1.002-0.424-1.838-1.024-2.501-1.802c-0.665-0.777-1.167-1.719-1.507-2.822c-0.339-1.103-0.509-2.318-0.509-3.647v-10.649
		c0-0.509,0.113-0.855,0.34-1.039c0.226-0.184,0.523-0.275,0.891-0.275h0.296c0.368,0,0.666,0.091,0.891,0.275
		c0.228,0.184,0.341,0.53,0.341,1.039v10.479c0,2.035,0.488,3.628,1.464,4.772c0.976,1.146,2.367,1.72,4.178,1.72
		c1.469,0,2.765-0.396,3.882-1.189c1.117-0.792,1.974-1.823,2.567-3.097v-12.686c0-0.509,0.111-0.855,0.339-1.039
		c0.226-0.184,0.523-0.275,0.892-0.275h0.297c0.366,0,0.663,0.091,0.891,0.275c0.226,0.184,0.34,0.53,0.34,1.039v18.921
		c0,0.057-0.094,0.122-0.277,0.191c-0.184,0.07-0.401,0.106-0.658,0.106c-0.479,0-0.897-0.169-1.25-0.509
		c-0.354-0.341-0.531-1.061-0.531-2.164v-0.637C312.199,402.819,311.273,403.697,310.128,404.375z"/>
	<path fill="#3D3C3A" d="M323.406,398.521c0.41,0.905,0.956,1.684,1.634,2.333c0.679,0.65,1.472,1.16,2.376,1.527
		c0.905,0.368,1.895,0.553,2.971,0.553c0.989,0,1.854-0.099,2.588-0.298c0.736-0.197,1.371-0.459,1.909-0.785
		c0.537-0.325,1.004-0.707,1.4-1.145c0.396-0.439,0.735-0.898,1.018-1.38c0.028-0.028,0.127-0.028,0.298,0
		c0.168,0.028,0.352,0.105,0.552,0.233c0.196,0.127,0.372,0.297,0.529,0.51c0.155,0.212,0.232,0.486,0.232,0.827
		c0,0.339-0.189,0.771-0.571,1.293c-0.383,0.523-0.934,1.018-1.655,1.485c-0.721,0.468-1.611,0.87-2.673,1.21
		c-1.06,0.338-2.269,0.508-3.627,0.508c-1.527,0-2.936-0.254-4.223-0.764c-1.286-0.509-2.39-1.229-3.31-2.163
		c-0.919-0.934-1.632-2.044-2.141-3.33c-0.511-1.288-0.765-2.708-0.765-4.264c0-1.527,0.254-2.948,0.765-4.263
		c0.509-1.315,1.214-2.446,2.12-3.394c0.905-0.948,1.98-1.69,3.225-2.227c1.245-0.538,2.603-0.807,4.073-0.807
		c1.413,0,2.7,0.241,3.86,0.721c1.16,0.481,2.149,1.167,2.971,2.058c0.819,0.891,1.455,1.965,1.908,3.224
		c0.453,1.259,0.679,2.652,0.679,4.18v0.253c0,0.396-0.084,0.651-0.254,0.765c-0.171,0.113-0.467,0.169-0.892,0.169h-15.697
		C322.765,396.626,322.997,397.615,323.406,398.521z M336.624,393.175c-0.144-2.008-0.785-3.606-1.932-4.795
		c-1.146-1.188-2.665-1.781-4.561-1.781c-0.961,0-1.853,0.163-2.673,0.487c-0.821,0.326-1.548,0.779-2.186,1.358
		c-0.637,0.58-1.167,1.273-1.59,2.079c-0.425,0.806-0.708,1.69-0.85,2.652H336.624z"/>
	<path fill="#3D3C3A" d="M341.64,384.627c-0.13,0-0.192-0.057-0.192-0.17v-0.033c0-0.115,0.062-0.177,0.192-0.177h1.688
		c0.128,0,0.191,0.062,0.191,0.177v0.033c0,0.113-0.063,0.17-0.191,0.17h-0.629v1.848c0,0.13-0.064,0.201-0.191,0.201h-0.057
		c-0.117,0-0.174-0.071-0.174-0.201v-1.848H341.64z M343.943,386.475v-2.018c0-0.154,0.065-0.233,0.205-0.233h0.197
		c0.072,0,0.123,0.014,0.152,0.043c0.033,0.033,0.06,0.077,0.083,0.132l0.502,1.23l0.492-1.23c0.028-0.062,0.058-0.109,0.096-0.136
		c0.031-0.026,0.08-0.04,0.142-0.04h0.182c0.135,0,0.205,0.079,0.205,0.233v2.018c0,0.13-0.057,0.201-0.171,0.201h-0.058
		c-0.111,0-0.165-0.071-0.165-0.201v-1.682l-0.513,1.274c-0.008,0.033-0.028,0.056-0.052,0.075
		c-0.023,0.024-0.078,0.033-0.169,0.033c-0.093,0-0.145-0.008-0.165-0.033c-0.023-0.019-0.036-0.042-0.047-0.075l-0.523-1.264v1.672
		c0,0.13-0.054,0.201-0.157,0.201h-0.073C343.998,386.676,343.943,386.605,343.943,386.475z"/>
	<path fill="#3D3C3A" d="M255.462,402.383l6.025-15.825c0.311-0.82,0.614-1.364,0.912-1.633c0.297-0.268,0.658-0.403,1.082-0.403
		c0.481,0,0.834,0.12,1.061,0.361c0.226,0.24,0.325,0.389,0.296,0.445l-7.423,18.709c-0.143,0.369-0.333,0.644-0.573,0.828
		c-0.241,0.184-0.714,0.274-1.421,0.274s-1.16-0.078-1.358-0.232c-0.199-0.155-0.368-0.416-0.509-0.785l-7.509-18.794
		c-0.028-0.085,0.07-0.241,0.297-0.467c0.225-0.227,0.579-0.339,1.06-0.339c0.48,0,0.87,0.135,1.167,0.403
		c0.297,0.27,0.601,0.813,0.912,1.633L255.462,402.383z"/>
	<path fill="#3D3C3A" d="M281.087,392.116c0-1.753-0.487-3.089-1.463-4.009c-0.976-0.919-2.383-1.379-4.221-1.379
		c-1.642,0-2.984,0.361-4.031,1.082c-1.046,0.722-1.852,1.605-2.418,2.652c-0.339-0.056-0.601-0.134-0.785-0.233
		c-0.184-0.099-0.36-0.262-0.53-0.488c-0.17-0.227-0.255-0.523-0.255-0.892c0-0.366,0.176-0.812,0.53-1.336
		c0.353-0.523,0.876-1.032,1.57-1.527s1.556-0.919,2.588-1.273c1.032-0.353,2.212-0.531,3.542-0.531c2.574,0,4.583,0.694,6.024,2.08
		c1.442,1.386,2.164,3.31,2.164,5.771v12.728c0,0.057-0.092,0.121-0.276,0.191c-0.185,0.07-0.403,0.106-0.658,0.106
		c-0.48,0-0.891-0.172-1.23-0.511c-0.339-0.339-0.509-1.06-0.509-2.163v-0.763c-0.792,1.188-1.846,2.106-3.161,2.758
		c-1.315,0.649-2.779,0.975-4.392,0.975c-2.206,0-3.917-0.517-5.133-1.549c-1.216-1.031-1.825-2.396-1.825-4.093
		c0-2.376,1.167-4.088,3.5-5.134c2.334-1.046,5.848-1.626,10.543-1.74h0.424V392.116z M273.833,403.062
		c1.046,0,2.008-0.155,2.885-0.467c0.876-0.311,1.641-0.742,2.291-1.294s1.159-1.201,1.527-1.952
		c0.367-0.749,0.551-1.577,0.551-2.48v-1.868l-1.188,0.042c-3.479,0.143-6.096,0.552-7.85,1.23c-1.753,0.68-2.63,1.826-2.63,3.438
		c0,1.017,0.388,1.831,1.167,2.439C271.365,402.758,272.447,403.062,273.833,403.062z"/>
	<path fill="#3D3C3A" d="M289.87,404.779c-0.226-0.183-0.339-0.529-0.339-1.038v-27.45c0-0.057,0.091-0.121,0.275-0.191
		s0.403-0.106,0.658-0.106c0.481,0,0.905,0.17,1.272,0.509c0.368,0.339,0.551,1.061,0.551,2.164v25.075
		c0,0.509-0.113,0.855-0.339,1.038c-0.227,0.184-0.523,0.277-0.891,0.277h-0.297C290.393,405.057,290.096,404.963,289.87,404.779z"
		/>
	<path fill="#3D3C3A" d="M310.128,404.378c-1.146,0.679-2.511,1.018-4.094,1.018c-1.33,0-2.496-0.212-3.5-0.637
		c-1.004-0.425-1.838-1.025-2.503-1.803c-0.665-0.778-1.167-1.719-1.506-2.822c-0.339-1.103-0.509-2.317-0.509-3.649v-10.649
		c0-0.508,0.113-0.854,0.339-1.039c0.226-0.183,0.523-0.275,0.891-0.275h0.297c0.368,0,0.665,0.092,0.891,0.275
		c0.228,0.185,0.34,0.531,0.34,1.039v10.48c0,2.036,0.488,3.627,1.464,4.773c0.976,1.144,2.369,1.718,4.179,1.718
		c1.469,0,2.765-0.396,3.881-1.188c1.118-0.792,1.974-1.825,2.566-3.097v-12.688c0-0.508,0.113-0.854,0.341-1.039
		c0.226-0.183,0.523-0.275,0.89-0.275h0.298c0.368,0,0.665,0.092,0.891,0.275c0.226,0.185,0.34,0.531,0.34,1.04v18.923
		c0,0.057-0.093,0.121-0.275,0.191c-0.185,0.07-0.403,0.106-0.658,0.106c-0.48,0-0.897-0.172-1.251-0.511
		c-0.354-0.339-0.53-1.06-0.53-2.163v-0.636C312.199,402.821,311.273,403.698,310.128,404.378z"/>
	<path fill="#3D3C3A" d="M323.406,398.523c0.412,0.903,0.955,1.683,1.634,2.333c0.68,0.649,1.471,1.16,2.377,1.526
		c0.903,0.369,1.894,0.551,2.97,0.551c0.989,0,1.852-0.099,2.587-0.296s1.372-0.46,1.909-0.784c0.538-0.326,1.004-0.707,1.4-1.146
		c0.396-0.438,0.735-0.896,1.018-1.379c0.028-0.028,0.129-0.028,0.298,0s0.354,0.106,0.552,0.233s0.373,0.298,0.53,0.51
		c0.156,0.211,0.233,0.487,0.233,0.826c0,0.34-0.191,0.772-0.572,1.295c-0.383,0.523-0.935,1.018-1.654,1.483
		c-0.723,0.468-1.613,0.87-2.674,1.209c-1.061,0.34-2.27,0.511-3.627,0.511c-1.527,0-2.937-0.256-4.222-0.764
		c-1.288-0.51-2.392-1.23-3.309-2.165c-0.921-0.933-1.634-2.043-2.144-3.33c-0.509-1.287-0.764-2.708-0.764-4.263
		c0-1.528,0.255-2.949,0.764-4.265c0.51-1.314,1.216-2.446,2.12-3.394c0.906-0.948,1.981-1.69,3.226-2.227
		c1.245-0.538,2.602-0.807,4.072-0.807c1.415,0,2.701,0.241,3.861,0.723c1.16,0.481,2.148,1.166,2.969,2.057
		c0.821,0.891,1.458,1.967,1.91,3.225c0.453,1.258,0.679,2.651,0.679,4.178v0.254c0,0.397-0.084,0.652-0.255,0.764
		c-0.168,0.114-0.467,0.171-0.891,0.171h-15.697C322.764,396.627,322.997,397.617,323.406,398.523z M336.622,393.175
		c-0.142-2.007-0.784-3.605-1.929-4.794c-1.147-1.188-2.667-1.782-4.562-1.782c-0.961,0-1.852,0.163-2.673,0.489
		c-0.82,0.325-1.548,0.778-2.184,1.357c-0.637,0.58-1.167,1.273-1.591,2.079c-0.426,0.806-0.708,1.69-0.851,2.651H336.622z"/>
	<path fill="#3D3C3A" d="M341.638,384.628c-0.126,0-0.188-0.057-0.188-0.17v-0.035c0-0.115,0.062-0.177,0.188-0.177h1.688
		c0.127,0,0.191,0.062,0.191,0.177v0.035c0,0.113-0.064,0.17-0.191,0.17h-0.629v1.847c0,0.13-0.064,0.201-0.19,0.201h-0.058
		c-0.114,0-0.174-0.071-0.174-0.201v-1.847H341.638z M343.944,386.476v-2.017c0-0.155,0.065-0.233,0.203-0.233h0.196
		c0.073,0,0.128,0.013,0.156,0.042c0.031,0.033,0.058,0.077,0.082,0.132l0.5,1.231l0.495-1.231c0.025-0.062,0.056-0.109,0.093-0.136
		c0.034-0.026,0.081-0.039,0.145-0.039h0.181c0.135,0,0.205,0.079,0.205,0.233v2.017c0,0.13-0.059,0.201-0.172,0.201h-0.055
		c-0.112,0-0.168-0.071-0.168-0.201v-1.682l-0.514,1.274c-0.008,0.032-0.029,0.055-0.05,0.074c-0.025,0.024-0.08,0.033-0.168,0.033
		c-0.096,0-0.146-0.008-0.168-0.033c-0.023-0.019-0.036-0.042-0.047-0.074l-0.521-1.266v1.673c0,0.13-0.056,0.201-0.158,0.201
		h-0.074C344,386.677,343.944,386.606,343.944,386.476z"/>
	<g>
		<path fill="#3D3C3A" d="M349.855,405.185c-0.597,0-1.123-0.062-1.576-0.187c-0.454-0.124-0.834-0.279-1.139-0.467
			c-0.305-0.187-0.538-0.385-0.699-0.597c-0.162-0.211-0.242-0.397-0.242-0.56c0-0.124,0.03-0.229,0.093-0.317
			c0.062-0.087,0.134-0.158,0.215-0.214c0.081-0.057,0.155-0.094,0.224-0.112s0.109-0.021,0.121-0.01
			c0.299,0.411,0.693,0.753,1.186,1.026c0.49,0.273,1.109,0.41,1.855,0.41s1.315-0.137,1.707-0.41s0.588-0.635,0.588-1.082
			c0-0.261-0.057-0.479-0.168-0.652c-0.111-0.175-0.279-0.32-0.504-0.438c-0.224-0.118-0.498-0.218-0.82-0.299
			c-0.324-0.081-0.697-0.165-1.12-0.252c-0.348-0.074-0.706-0.161-1.072-0.261c-0.367-0.1-0.703-0.24-1.007-0.42
			c-0.306-0.181-0.554-0.414-0.746-0.7c-0.193-0.285-0.29-0.652-0.29-1.101c0-0.397,0.081-0.762,0.243-1.091
			c0.161-0.329,0.392-0.612,0.689-0.849c0.299-0.236,0.656-0.42,1.073-0.551c0.416-0.13,0.88-0.196,1.39-0.196
			c0.547,0,1.023,0.056,1.427,0.168c0.404,0.112,0.746,0.255,1.026,0.429c0.279,0.174,0.488,0.357,0.625,0.55
			c0.137,0.193,0.205,0.377,0.205,0.551c0,0.112-0.034,0.212-0.103,0.299s-0.144,0.158-0.224,0.214
			c-0.082,0.056-0.155,0.094-0.225,0.112c-0.068,0.019-0.108,0.021-0.121,0.009c-0.249-0.385-0.594-0.699-1.035-0.941
			c-0.441-0.243-0.967-0.364-1.576-0.364c-0.734,0-1.291,0.14-1.67,0.42s-0.568,0.638-0.568,1.072c0,0.473,0.208,0.809,0.625,1.008
			c0.416,0.199,1.035,0.386,1.855,0.56c0.361,0.075,0.734,0.165,1.119,0.271c0.386,0.105,0.737,0.249,1.055,0.429
			c0.316,0.181,0.578,0.417,0.783,0.709c0.205,0.293,0.308,0.669,0.308,1.129c0,0.821-0.311,1.478-0.933,1.968
			C351.808,404.939,350.95,405.185,349.855,405.185z"/>
		<path fill="#3D3C3A" d="M359.313,405.185c-0.646,0-1.25-0.118-1.81-0.354s-1.045-0.562-1.455-0.979
			c-0.41-0.416-0.73-0.911-0.961-1.483c-0.23-0.571-0.345-1.193-0.345-1.865s0.114-1.29,0.345-1.856
			c0.23-0.565,0.551-1.057,0.961-1.474c0.41-0.416,0.896-0.74,1.455-0.97s1.163-0.345,1.81-0.345s1.21,0.09,1.688,0.271
			s0.877,0.401,1.193,0.663c0.317,0.261,0.554,0.531,0.709,0.812c0.156,0.279,0.233,0.52,0.233,0.718
			c0,0.137-0.04,0.246-0.121,0.326c-0.081,0.081-0.171,0.144-0.271,0.188c-0.1,0.043-0.189,0.068-0.271,0.074
			s-0.128,0.003-0.14-0.01c-0.112-0.273-0.256-0.528-0.43-0.765s-0.382-0.444-0.625-0.625c-0.242-0.18-0.525-0.32-0.849-0.42
			s-0.696-0.148-1.119-0.148c-0.473,0-0.914,0.087-1.324,0.261c-0.411,0.174-0.765,0.42-1.063,0.737
			c-0.299,0.316-0.531,0.693-0.699,1.128c-0.168,0.436-0.252,0.914-0.252,1.437s0.084,1.001,0.252,1.437s0.4,0.814,0.699,1.138
			c0.299,0.324,0.649,0.576,1.054,0.756c0.404,0.181,0.85,0.271,1.334,0.271c0.423,0,0.796-0.05,1.119-0.149s0.606-0.239,0.849-0.42
			c0.243-0.18,0.451-0.388,0.625-0.625c0.174-0.235,0.317-0.49,0.43-0.765c0.012-0.024,0.059-0.03,0.14-0.019
			c0.081,0.013,0.171,0.041,0.271,0.084c0.1,0.044,0.189,0.105,0.271,0.187s0.121,0.19,0.121,0.326c0,0.199-0.077,0.438-0.233,0.719
			c-0.155,0.279-0.392,0.55-0.709,0.812c-0.316,0.261-0.715,0.482-1.193,0.662S359.96,405.185,359.313,405.185z"/>
		<path fill="#3D3C3A" d="M368.995,405.185c-0.671,0-1.287-0.118-1.847-0.354s-1.042-0.562-1.445-0.979
			c-0.404-0.416-0.722-0.911-0.951-1.483c-0.23-0.571-0.346-1.193-0.346-1.865s0.115-1.29,0.346-1.856
			c0.229-0.565,0.547-1.057,0.951-1.474c0.403-0.416,0.886-0.74,1.445-0.97s1.176-0.345,1.847-0.345c0.659,0,1.27,0.118,1.829,0.354
			s1.041,0.563,1.445,0.979c0.404,0.417,0.721,0.911,0.951,1.483c0.229,0.572,0.345,1.194,0.345,1.865
			c0,0.672-0.115,1.291-0.345,1.856c-0.23,0.566-0.547,1.058-0.951,1.474c-0.404,0.417-0.886,0.74-1.445,0.971
			C370.265,405.069,369.654,405.185,368.995,405.185z M368.995,404.121c0.473,0,0.915-0.09,1.325-0.271
			c0.41-0.18,0.765-0.429,1.063-0.746c0.298-0.317,0.531-0.693,0.699-1.129c0.168-0.435,0.252-0.914,0.252-1.437
			c0-0.521-0.084-1.004-0.252-1.445s-0.401-0.824-0.699-1.147c-0.299-0.323-0.65-0.575-1.055-0.756
			c-0.404-0.18-0.849-0.271-1.334-0.271c-0.484,0-0.933,0.091-1.343,0.271c-0.41,0.181-0.765,0.43-1.063,0.747
			c-0.298,0.316-0.531,0.693-0.699,1.128c-0.168,0.436-0.252,0.914-0.252,1.437s0.084,1.005,0.252,1.445
			c0.168,0.442,0.401,0.824,0.699,1.147c0.299,0.324,0.653,0.576,1.063,0.756C368.062,404.031,368.511,404.121,368.995,404.121z"/>
		<path fill="#3D3C3A" d="M379.032,395.857c0.41,0,0.728,0.081,0.951,0.243s0.336,0.386,0.336,0.671c0,0.225-0.05,0.393-0.149,0.504
			c-0.1,0.112-0.162,0.156-0.187,0.131c-0.137-0.112-0.289-0.202-0.457-0.271s-0.376-0.103-0.625-0.103
			c-0.397,0-0.736,0.1-1.017,0.298c-0.28,0.199-0.507,0.474-0.681,0.821c-0.175,0.349-0.302,0.762-0.383,1.241
			c-0.081,0.479-0.121,1.004-0.121,1.576v3.488c0,0.224-0.05,0.376-0.149,0.457s-0.23,0.121-0.392,0.121h-0.131
			c-0.161,0-0.292-0.04-0.392-0.121s-0.149-0.233-0.149-0.457v-8.32c0-0.025,0.04-0.053,0.121-0.084
			c0.081-0.031,0.178-0.046,0.29-0.046c0.211,0,0.394,0.075,0.55,0.224c0.155,0.149,0.233,0.466,0.233,0.952v0.541
			C377.079,396.479,377.863,395.857,379.032,395.857z"/>
		<path fill="#3D3C3A" d="M382.623,402.162c0.181,0.398,0.42,0.74,0.719,1.026c0.298,0.286,0.646,0.51,1.045,0.671
			c0.397,0.162,0.833,0.243,1.306,0.243c0.435,0,0.813-0.043,1.138-0.131c0.323-0.087,0.604-0.202,0.84-0.345
			c0.235-0.143,0.441-0.311,0.615-0.504c0.174-0.192,0.323-0.395,0.448-0.606c0.012-0.012,0.056-0.012,0.13,0
			c0.075,0.013,0.156,0.047,0.242,0.103c0.087,0.057,0.165,0.131,0.234,0.225c0.067,0.093,0.102,0.214,0.102,0.363
			s-0.084,0.339-0.252,0.569c-0.168,0.229-0.41,0.447-0.728,0.653c-0.316,0.204-0.708,0.382-1.175,0.531
			c-0.467,0.148-0.998,0.224-1.595,0.224c-0.672,0-1.29-0.112-1.856-0.336s-1.051-0.541-1.455-0.951s-0.719-0.898-0.942-1.465
			c-0.224-0.565-0.336-1.19-0.336-1.874c0-0.672,0.112-1.297,0.336-1.875c0.224-0.579,0.535-1.076,0.934-1.493
			c0.397-0.416,0.87-0.743,1.417-0.979s1.145-0.354,1.791-0.354c0.621,0,1.188,0.106,1.697,0.317
			c0.51,0.212,0.945,0.514,1.307,0.905c0.36,0.392,0.641,0.864,0.839,1.418c0.199,0.554,0.299,1.165,0.299,1.837v0.112
			c0,0.174-0.037,0.286-0.112,0.336c-0.074,0.05-0.205,0.074-0.392,0.074h-6.902C382.34,401.329,382.443,401.765,382.623,402.162z
			 M388.435,399.812c-0.062-0.884-0.346-1.586-0.849-2.108c-0.504-0.522-1.173-0.784-2.006-0.784c-0.423,0-0.814,0.072-1.176,0.215
			c-0.36,0.144-0.68,0.342-0.96,0.597c-0.28,0.256-0.513,0.56-0.699,0.914s-0.312,0.743-0.373,1.167H388.435z"/>
	</g>
</g>
</svg>
