<?xml version="1.0" encoding="utf-8"?>
<!-- Generator: Adobe Illustrator 16.0.0, SVG Export Plug-In . SVG Version: 6.00 Build 0)  -->
<!DOCTYPE svg PUBLIC "-//W3C//DTD SVG 1.1//EN" "http://www.w3.org/Graphics/SVG/1.1/DTD/svg11.dtd">
<svg version="1.1" id="Layer_1" xmlns="http://www.w3.org/2000/svg" xmlns:xlink="http://www.w3.org/1999/xlink" x="0px" y="0px"
	 width="442.052px" height="78.807px" viewBox="85.358 357.097 442.052 78.807"
	 enable-background="new 85.358 357.097 442.052 78.807" xml:space="preserve">
<g>
	<path fill="#F2673B" d="M94.63,417.467c1.098,2.427,2.558,4.509,4.376,6.254c1.819,1.744,3.939,3.106,6.366,4.092
		c2.425,0.985,5.076,1.477,7.958,1.477c2.651,0,4.963-0.264,6.934-0.796c1.969-0.527,3.676-1.231,5.115-2.104
		c1.438-0.869,2.69-1.892,3.752-3.067c1.06-1.175,1.969-2.406,2.728-3.694c0.075-0.076,0.342-0.076,0.796,0
		c0.456,0.076,0.946,0.284,1.479,0.624c0.53,0.341,1.004,0.796,1.421,1.365c0.416,0.567,0.625,1.308,0.625,2.217
		s-0.512,2.065-1.534,3.468c-1.022,1.401-2.501,2.728-4.433,3.977c-1.935,1.252-4.32,2.332-7.163,3.241
		c-2.842,0.909-6.082,1.362-9.719,1.362c-4.092,0-7.863-0.68-11.312-2.045c-3.448-1.365-6.403-3.297-8.865-5.798
		c-2.464-2.5-4.377-5.474-5.741-8.923c-1.363-3.449-2.046-7.257-2.046-11.427c0-4.091,0.683-7.898,2.046-11.422
		c1.364-3.524,3.257-6.555,5.684-9.094c2.425-2.539,5.305-4.528,8.641-5.969c3.334-1.439,6.971-2.161,10.913-2.161
		c3.788,0,7.236,0.646,10.344,1.934c3.106,1.289,5.758,3.126,7.957,5.514c2.198,2.388,3.903,5.268,5.115,8.639
		c1.212,3.375,1.819,7.106,1.819,11.199v0.678c0,1.064-0.228,1.744-0.681,2.048c-0.456,0.303-1.252,0.453-2.388,0.453H92.755
		C92.905,412.392,93.529,415.043,94.63,417.467z M130.04,403.146c-0.379-5.381-2.103-9.663-5.173-12.847
		c-3.067-3.183-7.144-4.774-12.219-4.774c-2.577,0-4.965,0.438-7.163,1.307c-2.197,0.872-4.147,2.086-5.855,3.638
		c-1.703,1.555-3.125,3.411-4.261,5.57c-1.138,2.16-1.895,4.529-2.274,7.106H130.04z"/>
	<path fill="#F2673B" d="M94.626,417.477c1.1,2.427,2.559,4.511,4.377,6.253c1.821,1.744,3.94,3.109,6.369,4.095
		c2.425,0.985,5.078,1.479,7.958,1.479c2.651,0,4.965-0.264,6.937-0.798c1.971-0.528,3.678-1.229,5.117-2.104
		c1.438-0.872,2.69-1.895,3.752-3.067c1.06-1.178,1.971-2.408,2.729-3.699c0.074-0.074,0.343-0.074,0.796,0
		c0.456,0.076,0.949,0.284,1.479,0.625c0.53,0.342,1.004,0.798,1.423,1.367c0.417,0.568,0.625,1.305,0.625,2.218
		c0,0.907-0.514,2.064-1.536,3.466c-1.022,1.402-2.501,2.728-4.433,3.979c-1.935,1.254-4.324,2.332-7.165,3.243
		c-2.843,0.907-6.084,1.362-9.724,1.362c-4.095,0-7.865-0.68-11.312-2.047c-3.451-1.365-6.408-3.297-8.869-5.798
		c-2.464-2.503-4.378-5.478-5.745-8.925c-1.362-3.452-2.045-7.26-2.045-11.43c0-4.093,0.683-7.9,2.045-11.426
		c1.367-3.526,3.26-6.557,5.687-9.097s5.305-4.53,8.644-5.969c3.333-1.441,6.973-2.163,10.915-2.163
		c3.791,0,7.238,0.646,10.348,1.934c3.106,1.289,5.761,3.128,7.96,5.516c2.196,2.388,3.903,5.268,5.118,8.641
		c1.21,3.373,1.818,7.107,1.818,11.202v0.678c0,1.063-0.229,1.746-0.683,2.05c-0.454,0.303-1.252,0.453-2.388,0.453H92.75
		C92.9,412.398,93.525,415.05,94.626,417.477z M130.045,403.15c-0.379-5.384-2.103-9.666-5.171-12.852
		c-3.071-3.183-7.148-4.774-12.226-4.774c-2.577,0-4.968,0.438-7.163,1.307c-2.2,0.872-4.15,2.087-5.855,3.64
		c-1.707,1.555-3.127,3.412-4.266,5.572c-1.136,2.159-1.897,4.53-2.274,7.107H130.045z"/>
	<path fill="#FFFFFF" d="M167.571,427.824l16.146-42.413c0.833-2.198,1.649-3.658,2.445-4.38c0.796-0.717,1.763-1.078,2.898-1.078
		c1.289,0,2.237,0.322,2.844,0.965c0.605,0.646,0.87,1.044,0.796,1.194l-19.898,50.146c-0.382,0.986-0.893,1.724-1.536,2.214
		c-0.646,0.493-1.915,0.743-3.81,0.743c-1.896,0-3.109-0.211-3.64-0.625c-0.529-0.416-0.985-1.117-1.362-2.107l-20.127-50.371
		c-0.076-0.228,0.189-0.644,0.796-1.25c0.606-0.605,1.552-0.909,2.841-0.909c1.291,0,2.332,0.361,3.128,1.078
		c0.796,0.722,1.61,2.182,2.445,4.38L167.571,427.824z"/>
	<path fill="#FFFFFF" d="M236.253,400.307c0-4.7-1.31-8.281-3.924-10.745c-2.616-2.464-6.39-3.695-11.315-3.695
		c-4.397,0-7.997,0.965-10.801,2.899c-2.807,1.934-4.967,4.303-6.482,7.106c-0.911-0.15-1.61-0.358-2.105-0.627
		c-0.492-0.264-0.965-0.698-1.42-1.307c-0.454-0.606-0.683-1.402-0.683-2.388s0.474-2.18,1.423-3.581
		c0.943-1.402,2.346-2.767,4.205-4.095c1.858-1.323,4.169-2.462,6.937-3.41c2.767-0.948,5.932-1.423,9.494-1.423
		c6.898,0,12.279,1.86,16.147,5.573c3.868,3.715,5.8,8.869,5.8,15.465v34.108c0,0.152-0.247,0.326-0.738,0.514
		c-0.497,0.188-1.08,0.284-1.763,0.284c-1.288,0-2.387-0.453-3.299-1.364c-0.911-0.912-1.362-2.841-1.362-5.798v-2.047
		c-2.124,3.186-4.948,5.649-8.472,7.391c-3.526,1.742-7.449,2.617-11.769,2.617c-5.913,0-10.503-1.386-13.761-4.15
		c-3.26-2.77-4.891-6.427-4.891-10.973c0-6.371,3.128-10.958,9.384-13.762c6.253-2.802,15.671-4.356,28.256-4.661h1.139V400.307z
		 M216.806,429.643c2.804,0,5.384-0.416,7.731-1.249c2.351-0.833,4.398-1.992,6.141-3.471c1.744-1.478,3.106-3.22,4.095-5.228
		c0.982-2.011,1.48-4.229,1.48-6.654v-5.005l-3.186,0.113c-9.323,0.382-16.338,1.48-21.036,3.301
		c-4.701,1.82-7.052,4.888-7.052,9.212c0,2.728,1.041,4.906,3.128,6.537C210.191,428.831,213.091,429.643,216.806,429.643z"/>
	<path fill="#FFFFFF" d="M259.79,434.246c-0.611-0.488-0.909-1.418-0.909-2.785v-73.568c0-0.15,0.242-0.321,0.735-0.512
		c0.493-0.189,1.083-0.284,1.763-0.284c1.291,0,2.427,0.456,3.412,1.362c0.986,0.912,1.477,2.846,1.477,5.803v67.199
		c0,1.367-0.301,2.297-0.907,2.785c-0.608,0.495-1.406,0.74-2.388,0.74h-0.796C261.191,434.986,260.394,434.741,259.79,434.246z"/>
	<path fill="#FFFFFF" d="M314.084,433.168c-3.067,1.818-6.73,2.728-10.973,2.728c-3.562,0-6.69-0.568-9.384-1.707
		c-2.688-1.136-4.928-2.746-6.704-4.83c-1.783-2.082-3.13-4.606-4.039-7.562c-0.909-2.957-1.365-6.214-1.365-9.777v-28.542
		c0-1.364,0.303-2.292,0.912-2.785c0.605-0.493,1.401-0.738,2.387-0.738h0.794c0.985,0,1.783,0.245,2.388,0.738
		c0.61,0.493,0.913,1.421,0.913,2.785v28.087c0,5.455,1.308,9.723,3.924,12.791c2.614,3.072,6.344,4.608,11.197,4.608
		c3.939,0,7.41-1.062,10.405-3.186c2.994-2.124,5.289-4.889,6.881-8.301v-34c0-1.364,0.298-2.292,0.909-2.785
		c0.604-0.493,1.401-0.738,2.388-0.738h0.798c0.98,0,1.776,0.245,2.388,0.738c0.604,0.493,0.908,1.421,0.908,2.785v50.712
		c0,0.152-0.25,0.326-0.742,0.514s-1.075,0.284-1.763,0.284c-1.286,0-2.406-0.453-3.353-1.364c-0.95-0.912-1.423-2.841-1.423-5.798
		v-1.707C319.636,428.997,317.153,431.35,314.084,433.168z"/>
	<path fill="#FFFFFF" d="M349.673,417.477c1.099,2.427,2.562,4.511,4.379,6.253c1.819,1.744,3.942,3.109,6.368,4.095
		s5.078,1.479,7.962,1.479c2.651,0,4.966-0.264,6.937-0.798c1.971-0.528,3.674-1.229,5.115-2.104
		c1.441-0.872,2.691-1.895,3.754-3.067c1.061-1.178,1.971-2.408,2.729-3.699c0.076-0.074,0.34-0.074,0.797,0
		c0.451,0.076,0.943,0.284,1.479,0.625c0.527,0.342,1,0.798,1.418,1.367c0.416,0.568,0.625,1.305,0.625,2.218
		c0,0.907-0.51,2.064-1.531,3.466c-1.025,1.402-2.504,2.728-4.438,3.979c-1.932,1.254-4.318,2.332-7.164,3.243
		c-2.84,0.907-6.079,1.362-9.72,1.362c-4.095,0-7.868-0.68-11.317-2.047c-3.449-1.365-6.406-3.297-8.869-5.798
		c-2.465-2.503-4.377-5.478-5.74-8.925c-1.367-3.452-2.047-7.26-2.047-11.43c0-4.093,0.68-7.9,2.047-11.426
		c1.363-3.526,3.256-6.557,5.684-9.097c2.426-2.54,5.309-4.53,8.643-5.969c3.338-1.441,6.975-2.163,10.917-2.163
		c3.788,0,7.237,0.646,10.347,1.934c3.109,1.289,5.762,3.128,7.961,5.516c2.197,2.388,3.9,5.268,5.115,8.641
		s1.818,7.107,1.818,11.202v0.678c0,1.063-0.225,1.746-0.68,2.05c-0.457,0.303-1.25,0.453-2.389,0.453h-42.072
		C347.951,412.398,348.576,415.05,349.673,417.477z M385.098,403.15c-0.383-5.384-2.104-9.666-5.176-12.852
		c-3.07-3.183-7.144-4.774-12.224-4.774c-2.575,0-4.966,0.438-7.163,1.307c-2.201,0.872-4.15,2.087-5.858,3.64
		c-1.706,1.555-3.128,3.412-4.261,5.572c-1.139,2.159-1.897,4.53-2.277,7.107H385.098z"/>
	<path fill="#FFFFFF" d="M398.541,380.238c-0.348,0-0.514-0.153-0.514-0.456v-0.09c0-0.308,0.166-0.475,0.514-0.475h4.523
		c0.342,0,0.514,0.167,0.514,0.475v0.09c0,0.303-0.172,0.456-0.514,0.456h-1.686v4.953c0,0.349-0.174,0.539-0.514,0.539h-0.152
		c-0.312,0-0.465-0.19-0.465-0.539v-4.953H398.541z M404.717,385.191v-5.409c0-0.412,0.174-0.625,0.549-0.625h0.527
		c0.193,0,0.332,0.037,0.408,0.116c0.09,0.088,0.16,0.206,0.223,0.354l1.346,3.299l1.32-3.299c0.076-0.166,0.152-0.291,0.256-0.363
		c0.084-0.069,0.215-0.106,0.381-0.106h0.486c0.361,0,0.549,0.213,0.549,0.625v5.409c0,0.349-0.152,0.539-0.459,0.539h-0.152
		c-0.299,0-0.443-0.19-0.443-0.539v-4.509l-1.375,3.414c-0.02,0.088-0.076,0.15-0.139,0.201c-0.062,0.065-0.207,0.088-0.451,0.088
		c-0.25,0-0.389-0.022-0.443-0.088c-0.062-0.051-0.098-0.113-0.125-0.201l-1.402-3.389v4.483c0,0.349-0.146,0.539-0.424,0.539
		h-0.193C404.861,385.73,404.717,385.54,404.717,385.191z"/>
	<path fill="#FFFFFF" d="M167.569,427.829l16.147-42.416c0.833-2.197,1.647-3.655,2.443-4.377c0.798-0.72,1.763-1.08,2.9-1.08
		c1.289,0,2.235,0.321,2.844,0.967c0.605,0.644,0.87,1.043,0.793,1.193l-19.896,50.146c-0.382,0.99-0.893,1.726-1.536,2.219
		c-0.646,0.492-1.915,0.737-3.81,0.737c-1.896,0-3.109-0.21-3.64-0.624c-0.532-0.417-0.985-1.115-1.364-2.105l-20.127-50.372
		c-0.074-0.229,0.189-0.646,0.798-1.251c0.604-0.606,1.552-0.909,2.841-0.909c1.288,0,2.332,0.36,3.128,1.08
		c0.796,0.722,1.61,2.18,2.445,4.377L167.569,427.829z"/>
	<path fill="#FFFFFF" d="M236.25,400.31c0-4.699-1.307-8.28-3.923-10.746c-2.614-2.462-6.388-3.694-11.313-3.694
		c-4.399,0-7.999,0.967-10.804,2.898c-2.804,1.935-4.964,4.303-6.481,7.107c-0.909-0.15-1.61-0.359-2.104-0.625
		c-0.492-0.264-0.965-0.701-1.42-1.308c-0.456-0.608-0.683-1.401-0.683-2.39c0-0.982,0.472-2.177,1.42-3.581
		c0.946-1.401,2.349-2.767,4.208-4.093c1.858-1.325,4.169-2.463,6.937-3.412c2.767-0.946,5.929-1.423,9.494-1.423
		c6.898,0,12.282,1.86,16.147,5.573c3.866,3.716,5.8,8.87,5.8,15.466v34.112c0,0.153-0.247,0.326-0.74,0.514
		c-0.495,0.188-1.08,0.284-1.763,0.284c-1.289,0-2.388-0.458-3.297-1.367s-1.364-2.841-1.364-5.797v-2.045
		c-2.124,3.183-4.946,5.645-8.47,7.391c-3.526,1.742-7.449,2.612-11.771,2.612c-5.913,0-10.5-1.384-13.758-4.15
		c-3.26-2.765-4.891-6.422-4.891-10.97c0-6.369,3.128-10.958,9.381-13.762c6.256-2.804,15.672-4.358,28.257-4.662h1.138V400.31z
		 M216.806,429.649c2.804,0,5.384-0.416,7.731-1.251c2.349-0.833,4.398-1.99,6.141-3.468c1.744-1.479,3.106-3.221,4.095-5.233
		c0.982-2.006,1.478-4.227,1.478-6.648v-5.006l-3.183,0.111c-9.323,0.382-16.338,1.479-21.039,3.297
		c-4.7,1.821-7.049,4.894-7.049,9.216c0,2.725,1.041,4.908,3.126,6.537C210.191,428.833,213.091,429.649,216.806,429.649z"/>
	<path fill="#FFFFFF" d="M259.787,434.251c-0.605-0.49-0.909-1.42-0.909-2.783v-73.57c0-0.153,0.245-0.324,0.738-0.514
		s1.08-0.285,1.763-0.285c1.289,0,2.425,0.456,3.41,1.365s1.479,2.844,1.479,5.8v67.204c0,1.363-0.304,2.293-0.909,2.783
		c-0.606,0.493-1.402,0.742-2.388,0.742h-0.796C261.189,434.993,260.394,434.744,259.787,434.251z"/>
	<path fill="#FFFFFF" d="M314.084,433.175c-3.07,1.818-6.73,2.729-10.973,2.729c-3.565,0-6.69-0.569-9.381-1.708
		c-2.693-1.138-4.928-2.748-6.709-4.83c-1.781-2.087-3.128-4.608-4.037-7.565c-0.909-2.956-1.365-6.211-1.365-9.779v-28.541
		c0-1.363,0.303-2.291,0.909-2.786c0.606-0.49,1.402-0.737,2.388-0.737h0.796c0.985,0,1.781,0.247,2.388,0.737
		c0.608,0.495,0.911,1.423,0.911,2.786v28.09c0,5.456,1.307,9.722,3.924,12.792c2.614,3.067,6.348,4.605,11.199,4.605
		c3.939,0,7.41-1.063,10.403-3.183c2.996-2.124,5.289-4.894,6.88-8.301v-34.004c0-1.363,0.301-2.291,0.912-2.786
		c0.605-0.49,1.401-0.737,2.385-0.737h0.798c0.986,0,1.782,0.247,2.387,0.737c0.605,0.495,0.91,1.423,0.91,2.786v50.716
		c0,0.153-0.248,0.326-0.738,0.514c-0.494,0.188-1.08,0.284-1.763,0.284c-1.288,0-2.405-0.458-3.354-1.367
		c-0.948-0.909-1.42-2.841-1.42-5.797v-1.705C319.636,429.004,317.153,431.354,314.084,433.175z"/>
	<path fill="#FFFFFF" d="M349.673,417.483c1.103,2.422,2.56,4.511,4.378,6.253c1.822,1.742,3.941,3.109,6.372,4.093
		c2.421,0.987,5.075,1.476,7.959,1.476c2.651,0,4.962-0.264,6.935-0.793c1.971-0.53,3.678-1.233,5.113-2.104
		c1.445-0.874,2.693-1.895,3.756-3.072c1.062-1.175,1.971-2.403,2.727-3.694c0.076-0.076,0.346-0.076,0.799,0
		s0.949,0.284,1.479,0.625c0.527,0.34,1.002,0.798,1.422,1.367c0.418,0.564,0.625,1.305,0.625,2.214s-0.514,2.068-1.533,3.47
		c-1.027,1.402-2.506,2.728-4.434,3.978c-1.938,1.253-4.326,2.331-7.168,3.24s-6.083,1.368-9.72,1.368
		c-4.095,0-7.87-0.686-11.315-2.048c-3.453-1.367-6.41-3.297-8.869-5.802c-2.467-2.499-4.377-5.477-5.745-8.926
		c-1.362-3.449-2.046-7.258-2.046-11.425c0-4.095,0.684-7.905,2.046-11.431c1.368-3.523,3.261-6.557,5.685-9.097
		c2.43-2.54,5.311-4.529,8.645-5.969c3.336-1.441,6.973-2.163,10.913-2.163c3.794,0,7.241,0.646,10.349,1.937
		c3.109,1.289,5.76,3.126,7.961,5.513c2.199,2.388,3.904,5.271,5.117,8.644s1.818,7.106,1.818,11.199v0.68
		c0,1.064-0.225,1.749-0.682,2.048c-0.451,0.306-1.25,0.458-2.389,0.458h-42.071C347.949,412.401,348.574,415.054,349.673,417.483z
		 M385.094,403.15c-0.381-5.381-2.102-9.663-5.17-12.849c-3.074-3.184-7.148-4.775-12.229-4.775c-2.573,0-4.962,0.438-7.161,1.31
		c-2.201,0.87-4.15,2.084-5.854,3.639c-1.707,1.555-3.128,3.41-4.266,5.571c-1.139,2.16-1.896,4.529-2.277,7.104H385.094z"/>
	<path fill="#FFFFFF" d="M398.537,380.242c-0.34,0-0.506-0.152-0.506-0.455v-0.093c0-0.308,0.166-0.475,0.506-0.475h4.525
		c0.34,0,0.514,0.167,0.514,0.475v0.093c0,0.303-0.174,0.455-0.514,0.455h-1.686v4.951c0,0.35-0.174,0.539-0.512,0.539h-0.154
		c-0.307,0-0.465-0.189-0.465-0.539v-4.951H398.537z M404.719,385.193v-5.406c0-0.414,0.176-0.625,0.543-0.625h0.527
		c0.195,0,0.342,0.035,0.418,0.113c0.084,0.088,0.154,0.206,0.221,0.354l1.342,3.299l1.324-3.299c0.068-0.167,0.15-0.292,0.25-0.363
		c0.092-0.069,0.217-0.104,0.389-0.104h0.482c0.361,0,0.551,0.211,0.551,0.625v5.406c0,0.35-0.158,0.539-0.463,0.539h-0.146
		c-0.299,0-0.449-0.189-0.449-0.539v-4.507l-1.377,3.415c-0.02,0.086-0.076,0.148-0.133,0.199c-0.068,0.066-0.215,0.088-0.449,0.088
		c-0.258,0-0.393-0.021-0.451-0.088c-0.062-0.051-0.098-0.113-0.125-0.199l-1.396-3.392v4.483c0,0.35-0.15,0.539-0.422,0.539h-0.199
		C404.867,385.732,404.719,385.543,404.719,385.193z"/>
	<g>
		<path fill="#FFFFFF" d="M420.562,435.338c-1.602,0-3.01-0.168-4.227-0.5c-1.217-0.334-2.232-0.75-3.049-1.25
			c-0.818-0.5-1.443-1.033-1.875-1.601c-0.434-0.566-0.65-1.066-0.65-1.5c0-0.333,0.082-0.616,0.25-0.851
			c0.166-0.232,0.357-0.424,0.574-0.574s0.418-0.25,0.602-0.301c0.182-0.049,0.291-0.057,0.324-0.024
			c0.801,1.101,1.857,2.017,3.176,2.75c1.316,0.733,2.975,1.101,4.975,1.101s3.525-0.367,4.574-1.101
			c1.051-0.733,1.576-1.7,1.576-2.899c0-0.701-0.15-1.283-0.451-1.75c-0.299-0.467-0.75-0.858-1.35-1.176
			c-0.6-0.316-1.334-0.582-2.199-0.8c-0.867-0.216-1.867-0.441-3-0.675c-0.934-0.2-1.893-0.434-2.875-0.7
			c-0.984-0.267-1.885-0.642-2.701-1.125s-1.482-1.108-2-1.875s-0.775-1.75-0.775-2.95c0-1.066,0.217-2.041,0.65-2.925
			c0.434-0.883,1.051-1.642,1.85-2.274c0.801-0.633,1.758-1.125,2.875-1.476s2.359-0.524,3.727-0.524
			c1.465,0,2.74,0.149,3.824,0.449c1.082,0.301,2,0.684,2.75,1.15s1.309,0.959,1.676,1.475c0.365,0.518,0.549,1.009,0.549,1.475
			c0,0.301-0.092,0.568-0.275,0.801c-0.184,0.233-0.383,0.425-0.6,0.574c-0.217,0.15-0.416,0.25-0.6,0.301
			c-0.184,0.05-0.293,0.059-0.324,0.025c-0.668-1.033-1.594-1.875-2.775-2.525c-1.184-0.65-2.592-0.975-4.225-0.975
			c-1.969,0-3.459,0.375-4.477,1.125c-1.016,0.75-1.523,1.708-1.523,2.875c0,1.267,0.557,2.166,1.674,2.699s2.775,1.033,4.975,1.5
			c0.967,0.2,1.967,0.442,3,0.725c1.033,0.284,1.977,0.668,2.826,1.15c0.85,0.484,1.549,1.117,2.1,1.9s0.824,1.792,0.824,3.025
			c0,2.199-0.832,3.958-2.5,5.274C425.795,434.68,423.494,435.338,420.562,435.338z"/>
		<path fill="#FFFFFF" d="M445.912,435.338c-1.734,0-3.352-0.318-4.852-0.951s-2.799-1.508-3.898-2.625
			c-1.102-1.115-1.959-2.441-2.576-3.975s-0.924-3.199-0.924-5c0-1.8,0.307-3.457,0.924-4.975c0.617-1.517,1.475-2.833,2.576-3.95
			c1.1-1.116,2.398-1.983,3.898-2.601c1.5-0.615,3.117-0.924,4.852-0.924c1.732,0,3.24,0.242,4.523,0.725
			c1.283,0.483,2.352,1.074,3.201,1.775c0.85,0.699,1.482,1.424,1.9,2.174c0.416,0.75,0.625,1.393,0.625,1.926
			c0,0.367-0.109,0.658-0.326,0.875s-0.459,0.383-0.725,0.5c-0.268,0.117-0.508,0.184-0.725,0.199
			c-0.217,0.018-0.342,0.01-0.375-0.024c-0.301-0.733-0.684-1.417-1.15-2.05s-1.025-1.191-1.676-1.676
			c-0.648-0.482-1.408-0.857-2.273-1.125c-0.867-0.266-1.867-0.399-3-0.399c-1.268,0-2.451,0.233-3.551,0.7s-2.051,1.125-2.85,1.975
			c-0.801,0.85-1.426,1.859-1.875,3.025c-0.451,1.167-0.676,2.449-0.676,3.85s0.225,2.684,0.676,3.85
			c0.449,1.168,1.074,2.184,1.875,3.051c0.799,0.867,1.74,1.542,2.824,2.025c1.084,0.482,2.275,0.725,3.576,0.725
			c1.133,0,2.133-0.133,3-0.4c0.865-0.266,1.625-0.641,2.273-1.125c0.65-0.482,1.209-1.041,1.676-1.675
			c0.467-0.633,0.85-1.316,1.15-2.05c0.033-0.066,0.158-0.083,0.375-0.051c0.217,0.034,0.457,0.109,0.725,0.226
			c0.266,0.117,0.508,0.284,0.725,0.5c0.217,0.218,0.326,0.509,0.326,0.875c0,0.534-0.209,1.175-0.625,1.925
			c-0.418,0.75-1.051,1.475-1.9,2.176c-0.85,0.699-1.918,1.291-3.201,1.774C449.152,435.095,447.645,435.338,445.912,435.338z"/>
		<path fill="#FFFFFF" d="M471.861,435.338c-1.801,0-3.451-0.318-4.951-0.951s-2.791-1.508-3.875-2.625
			c-1.082-1.115-1.934-2.441-2.549-3.975c-0.617-1.533-0.926-3.199-0.926-5c0-1.8,0.309-3.457,0.926-4.975
			c0.615-1.517,1.467-2.833,2.549-3.95c1.084-1.116,2.375-1.983,3.875-2.601c1.5-0.615,3.15-0.924,4.951-0.924
			c1.766,0,3.4,0.316,4.9,0.949c1.5,0.634,2.791,1.509,3.875,2.625c1.082,1.117,1.932,2.442,2.549,3.975
			c0.615,1.534,0.924,3.201,0.924,5c0,1.801-0.309,3.459-0.924,4.976c-0.617,1.517-1.467,2.833-2.549,3.95
			c-1.084,1.117-2.375,1.983-3.875,2.6S473.627,435.338,471.861,435.338z M471.861,432.487c1.266,0,2.449-0.241,3.549-0.726
			c1.102-0.482,2.051-1.149,2.852-2c0.799-0.85,1.424-1.857,1.875-3.024c0.449-1.167,0.674-2.45,0.674-3.851
			c0-1.399-0.225-2.691-0.674-3.875c-0.451-1.182-1.076-2.207-1.875-3.074c-0.801-0.867-1.742-1.541-2.826-2.025
			c-1.084-0.482-2.275-0.725-3.574-0.725c-1.301,0-2.5,0.242-3.6,0.725c-1.102,0.484-2.051,1.15-2.852,2
			c-0.799,0.85-1.424,1.859-1.875,3.025c-0.449,1.167-0.674,2.449-0.674,3.85s0.225,2.692,0.674,3.875
			c0.451,1.184,1.076,2.209,1.875,3.075c0.801,0.867,1.75,1.542,2.852,2.024C469.361,432.246,470.561,432.487,471.861,432.487z"/>
		<path fill="#FFFFFF" d="M498.76,410.338c1.102,0,1.951,0.217,2.551,0.649c0.6,0.434,0.9,1.034,0.9,1.8c0,0.6-0.135,1.051-0.4,1.35
			c-0.268,0.301-0.434,0.418-0.5,0.351c-0.367-0.3-0.775-0.542-1.225-0.726c-0.451-0.182-1.01-0.274-1.676-0.274
			c-1.066,0-1.975,0.267-2.725,0.8s-1.359,1.268-1.824,2.2c-0.467,0.934-0.809,2.042-1.025,3.325s-0.326,2.691-0.326,4.225v9.35
			c0,0.601-0.133,1.01-0.398,1.226c-0.268,0.216-0.617,0.325-1.051,0.325h-0.35c-0.434,0-0.783-0.109-1.051-0.325
			c-0.266-0.216-0.4-0.625-0.4-1.226v-22.299c0-0.066,0.109-0.143,0.326-0.226s0.475-0.125,0.775-0.125
			c0.566,0,1.057,0.2,1.475,0.601c0.416,0.399,0.625,1.25,0.625,2.549v1.451C493.527,412.004,495.627,410.338,498.76,410.338z"/>
		<path fill="#FFFFFF" d="M508.387,427.237c0.482,1.067,1.125,1.983,1.924,2.75c0.801,0.767,1.732,1.367,2.801,1.8
			c1.066,0.434,2.232,0.65,3.5,0.65c1.166,0,2.182-0.117,3.049-0.35c0.867-0.233,1.617-0.542,2.25-0.926
			c0.633-0.383,1.184-0.832,1.65-1.35c0.467-0.517,0.867-1.059,1.201-1.625c0.031-0.033,0.148-0.033,0.35,0
			c0.199,0.033,0.416,0.125,0.65,0.275c0.232,0.149,0.441,0.35,0.625,0.6c0.182,0.25,0.273,0.574,0.273,0.975
			s-0.225,0.908-0.674,1.525c-0.451,0.617-1.1,1.199-1.951,1.75c-0.85,0.55-1.898,1.025-3.148,1.425s-2.676,0.601-4.275,0.601
			c-1.801,0-3.459-0.301-4.975-0.9c-1.518-0.6-2.818-1.45-3.9-2.551c-1.084-1.1-1.926-2.407-2.525-3.924
			c-0.6-1.518-0.9-3.191-0.9-5.025c0-1.801,0.301-3.475,0.9-5.025c0.6-1.55,1.434-2.883,2.5-4c1.066-1.116,2.332-1.991,3.801-2.625
			c1.465-0.633,3.066-0.949,4.799-0.949c1.666,0,3.184,0.283,4.551,0.85c1.365,0.566,2.533,1.375,3.5,2.425s1.717,2.317,2.25,3.8
			c0.533,1.484,0.799,3.125,0.799,4.926v0.299c0,0.468-0.1,0.768-0.299,0.9c-0.201,0.134-0.551,0.2-1.051,0.2h-18.5
			C507.627,425.004,507.902,426.171,508.387,427.237z M523.961,420.938c-0.168-2.367-0.926-4.25-2.275-5.65s-3.143-2.1-5.375-2.1
			c-1.133,0-2.184,0.191-3.15,0.574c-0.967,0.385-1.824,0.918-2.574,1.601c-0.75,0.684-1.375,1.5-1.875,2.45
			c-0.5,0.949-0.834,1.992-1,3.125H523.961z"/>
	</g>
</g>
</svg>
