<?xml version="1.0" encoding="utf-8"?>
<!-- Generator: Adobe Illustrator 16.0.0, SVG Export Plug-In . SVG Version: 6.00 Build 0)  -->
<!DOCTYPE svg PUBLIC "-//W3C//DTD SVG 1.1//EN" "http://www.w3.org/Graphics/SVG/1.1/DTD/svg11.dtd">
<svg version="1.1" id="Layer_1" xmlns="http://www.w3.org/2000/svg" xmlns:xlink="http://www.w3.org/1999/xlink" x="0px" y="0px"
	 width="325.478px" height="51.132px" viewBox="144.403 370.81 325.478 51.132"
	 enable-background="new 144.403 370.81 325.478 51.132" xml:space="preserve">
<g>
	<path fill="#F2673B" d="M149.795,405.938c0.639,1.412,1.488,2.625,2.547,3.639c1.058,1.015,2.292,1.809,3.704,2.382
		c1.411,0.573,2.954,0.859,4.631,0.859c1.543,0,2.888-0.153,4.035-0.463c1.147-0.308,2.139-0.716,2.978-1.224
		c0.836-0.507,1.564-1.102,2.183-1.786c0.617-0.684,1.146-1.399,1.588-2.15c0.043-0.043,0.198-0.043,0.463,0
		c0.265,0.045,0.551,0.166,0.86,0.364c0.308,0.198,0.584,0.463,0.826,0.794c0.242,0.33,0.364,0.761,0.364,1.29
		s-0.298,1.202-0.894,2.018c-0.595,0.816-1.455,1.588-2.579,2.315c-1.125,0.728-2.515,1.355-4.168,1.885
		c-1.654,0.529-3.539,0.794-5.656,0.794c-2.382,0-4.576-0.396-6.582-1.19c-2.008-0.794-3.728-1.919-5.161-3.374
		s-2.546-3.186-3.34-5.193c-0.794-2.006-1.19-4.222-1.19-6.648c0-2.381,0.396-4.598,1.19-6.648s1.896-3.813,3.308-5.292
		c1.411-1.477,3.087-2.635,5.027-3.473c1.94-0.837,4.058-1.257,6.351-1.257c2.205,0,4.211,0.375,6.02,1.125
		c1.808,0.75,3.351,1.819,4.63,3.208c1.279,1.389,2.271,3.065,2.977,5.027c0.705,1.963,1.059,4.135,1.059,6.517v0.396
		c0,0.618-0.132,1.015-0.396,1.19c-0.265,0.177-0.729,0.265-1.39,0.265h-24.477C148.791,402.983,149.154,404.526,149.795,405.938z
		 M170.401,397.603c-0.221-3.131-1.223-5.623-3.009-7.476c-1.787-1.852-4.157-2.778-7.112-2.778c-1.5,0-2.889,0.254-4.167,0.761
		c-1.279,0.507-2.415,1.214-3.407,2.117c-0.992,0.904-1.819,1.984-2.48,3.241c-0.662,1.257-1.103,2.636-1.323,4.135H170.401z"/>
	<path fill="#FFFFFF" d="M207.314,374.846c0.308-0.794,0.694-1.333,1.157-1.621c0.464-0.286,0.937-0.43,1.423-0.43
		c0.661,0,1.268,0.177,1.819,0.529c0.551,0.354,0.783,0.618,0.695,0.794l-15.679,40.485c-0.221,0.574-0.529,0.992-0.926,1.257
		c-0.396,0.265-1.081,0.397-2.051,0.397c-0.971,0-1.653-0.133-2.051-0.397c-0.397-0.265-0.706-0.683-0.926-1.257l-15.678-40.485
		c-0.089-0.176,0.143-0.44,0.694-0.794c0.552-0.353,1.18-0.529,1.886-0.529c0.529,0,1.036,0.144,1.521,0.43
		c0.484,0.288,0.882,0.827,1.19,1.621l13.43,36.252L207.314,374.846z"/>
	<path fill="#FFFFFF" d="M239.928,388.275c0-1.72,0.274-2.845,0.827-3.374c0.55-0.529,1.201-0.794,1.951-0.794
		c0.396,0,0.738,0.056,1.025,0.166c0.286,0.11,0.43,0.21,0.43,0.298v29.504c0,0.794-0.177,1.335-0.529,1.621
		c-0.354,0.286-0.816,0.43-1.389,0.43h-0.463c-0.574,0-1.037-0.144-1.389-0.43c-0.354-0.286-0.529-0.827-0.529-1.621v-3.373
		c-1.412,1.896-3.065,3.363-4.961,4.398c-1.897,1.036-4.146,1.555-6.748,1.555c-2.073,0-4.014-0.387-5.821-1.157
		c-1.81-0.771-3.386-1.874-4.73-3.308c-1.346-1.433-2.404-3.164-3.175-5.193c-0.772-2.028-1.158-4.3-1.158-6.813
		c0-2.47,0.374-4.73,1.125-6.781c0.749-2.051,1.808-3.804,3.175-5.259c1.367-1.456,2.978-2.58,4.829-3.374
		c1.853-0.794,3.859-1.191,6.021-1.191c2.821,0,5.226,0.562,7.211,1.687c1.984,1.125,3.417,2.415,4.3,3.87V388.275z
		 M239.928,394.758c-1.016-2.293-2.438-4.102-4.267-5.425c-1.831-1.323-4.135-1.984-6.913-1.984c-1.677,0-3.198,0.309-4.565,0.926
		c-1.367,0.618-2.536,1.489-3.506,2.613c-0.971,1.125-1.72,2.471-2.249,4.035c-0.529,1.566-0.794,3.298-0.794,5.193
		c0,1.853,0.275,3.562,0.827,5.127c0.551,1.565,1.312,2.911,2.282,4.035c0.97,1.125,2.127,2.008,3.473,2.646
		c1.345,0.64,2.812,0.959,4.399,0.959c1.455,0,2.866-0.265,4.234-0.794c1.366-0.529,2.579-1.268,3.638-2.216
		s1.896-2.072,2.514-3.374c0.617-1.301,0.927-2.701,0.927-4.201V394.758z"/>
	<path fill="#FFFFFF" d="M253.886,415.695c-0.354-0.286-0.529-0.827-0.529-1.621v-42.801c0-0.088,0.143-0.188,0.43-0.298
		c0.286-0.109,0.628-0.166,1.025-0.166c0.749,0,1.411,0.265,1.984,0.794s0.86,1.654,0.86,3.374v39.096
		c0,0.794-0.177,1.335-0.529,1.621c-0.354,0.286-0.816,0.43-1.39,0.43h-0.463C254.701,416.125,254.237,415.981,253.886,415.695z"/>
	<path fill="#FFFFFF" d="M285.474,415.066c-1.786,1.059-3.915,1.588-6.384,1.588c-2.073,0-3.893-0.33-5.458-0.992
		c-1.565-0.661-2.867-1.598-3.902-2.812c-1.037-1.212-1.819-2.679-2.349-4.399c-0.53-1.72-0.794-3.615-0.794-5.688v-16.605
		c0-0.794,0.176-1.333,0.529-1.621c0.353-0.286,0.815-0.43,1.389-0.43h0.464c0.572,0,1.035,0.144,1.389,0.43
		c0.353,0.287,0.529,0.827,0.529,1.621v16.34c0,3.175,0.761,5.656,2.282,7.442s3.693,2.679,6.517,2.679
		c2.292,0,4.31-0.617,6.053-1.853c1.741-1.233,3.076-2.845,4.002-4.829v-19.78c0-0.794,0.176-1.333,0.529-1.621
		c0.353-0.286,0.815-0.43,1.39-0.43h0.463c0.572,0,1.036,0.144,1.39,0.43c0.353,0.287,0.529,0.827,0.529,1.621v29.504
		c0,0.089-0.145,0.188-0.431,0.298c-0.287,0.109-0.628,0.165-1.025,0.165c-0.75,0-1.4-0.265-1.951-0.794
		c-0.552-0.528-0.827-1.653-0.827-3.373v-0.993C288.704,412.642,287.26,414.009,285.474,415.066z"/>
	<path fill="#FFFFFF" d="M306.18,405.938c0.639,1.412,1.488,2.625,2.547,3.639c1.058,1.015,2.292,1.809,3.704,2.382
		c1.411,0.573,2.954,0.859,4.631,0.859c1.543,0,2.889-0.153,4.035-0.463c1.146-0.308,2.139-0.716,2.978-1.224
		c0.837-0.507,1.565-1.102,2.183-1.786c0.617-0.684,1.146-1.399,1.588-2.15c0.043-0.043,0.199-0.043,0.463,0
		c0.265,0.045,0.551,0.166,0.86,0.364c0.308,0.198,0.584,0.463,0.827,0.794c0.242,0.33,0.363,0.761,0.363,1.29
		s-0.297,1.202-0.893,2.018c-0.596,0.816-1.455,1.588-2.58,2.315s-2.514,1.355-4.168,1.885s-3.539,0.794-5.656,0.794
		c-2.382,0-4.576-0.396-6.582-1.19c-2.008-0.794-3.728-1.919-5.16-3.374c-1.434-1.455-2.547-3.186-3.341-5.193
		c-0.794-2.006-1.19-4.222-1.19-6.648c0-2.381,0.396-4.598,1.19-6.648c0.793-2.051,1.896-3.813,3.308-5.292
		c1.411-1.477,3.087-2.635,5.027-3.473c1.94-0.837,4.058-1.257,6.352-1.257c2.205,0,4.211,0.375,6.02,1.125
		c1.809,0.75,3.352,1.819,4.631,3.208c1.279,1.389,2.271,3.065,2.977,5.027c0.705,1.963,1.059,4.135,1.059,6.517v0.396
		c0,0.618-0.132,1.015-0.396,1.19c-0.265,0.177-0.729,0.265-1.389,0.265h-24.478C305.176,402.983,305.539,404.526,306.18,405.938z
		 M326.786,397.603c-0.221-3.131-1.224-5.623-3.01-7.476c-1.786-1.852-4.157-2.778-7.111-2.778c-1.5,0-2.89,0.254-4.168,0.761
		c-1.279,0.507-2.415,1.214-3.407,2.117c-0.992,0.904-1.819,1.984-2.48,3.241c-0.662,1.257-1.103,2.636-1.323,4.135H326.786z"/>
	<path fill="#FFFFFF" d="M334.754,385.817c-0.41,0-0.616-0.188-0.616-0.564v-0.103c0-0.376,0.206-0.564,0.616-0.564h5.489
		c0.41,0,0.615,0.188,0.615,0.564v0.103c0,0.376-0.205,0.564-0.615,0.564h-2.052v6.003c0,0.428-0.205,0.641-0.616,0.641h-0.18
		c-0.376,0-0.564-0.213-0.564-0.641v-6.003H334.754z M342.244,391.82v-6.567c0-0.496,0.222-0.744,0.667-0.744h0.642
		c0.239,0,0.405,0.047,0.5,0.141c0.094,0.094,0.184,0.235,0.27,0.423l1.616,4.001l1.615-4.001c0.086-0.206,0.184-0.351,0.295-0.436
		s0.27-0.128,0.475-0.128h0.591c0.444,0,0.667,0.248,0.667,0.744v6.567c0,0.428-0.188,0.641-0.564,0.641h-0.18
		c-0.359,0-0.539-0.213-0.539-0.641v-5.464l-1.667,4.13c-0.034,0.103-0.09,0.188-0.167,0.257c-0.076,0.068-0.261,0.103-0.551,0.103
		c-0.291,0-0.471-0.034-0.539-0.103s-0.12-0.154-0.154-0.257l-1.693-4.104v5.438c0,0.428-0.17,0.641-0.513,0.641h-0.23
		C342.424,392.461,342.244,392.248,342.244,391.82z"/>
	<path fill="#FFFFFF" d="M364.487,402.987c0-0.803,0.129-1.327,0.387-1.574c0.256-0.247,0.561-0.371,0.91-0.371
		c0.186,0,0.344,0.026,0.479,0.077c0.134,0.052,0.201,0.099,0.201,0.14v13.769c0,0.37-0.083,0.623-0.248,0.756
		c-0.164,0.134-0.381,0.201-0.648,0.201h-0.215c-0.268,0-0.484-0.067-0.648-0.201c-0.166-0.133-0.248-0.386-0.248-0.756v-1.574
		c-0.658,0.885-1.43,1.569-2.314,2.053s-1.936,0.726-3.148,0.726c-0.969,0-1.873-0.181-2.717-0.54
		c-0.845-0.36-1.58-0.875-2.208-1.544s-1.122-1.477-1.481-2.424c-0.361-0.946-0.541-2.007-0.541-3.18
		c0-1.152,0.175-2.207,0.525-3.164c0.35-0.957,0.844-1.775,1.482-2.454c0.637-0.68,1.389-1.204,2.253-1.574
		c0.864-0.371,1.801-0.557,2.81-0.557c1.316,0,2.438,0.263,3.365,0.788c0.926,0.524,1.594,1.126,2.006,1.806V402.987z
		 M364.487,406.013c-0.474-1.07-1.137-1.914-1.99-2.531c-0.855-0.618-1.93-0.927-3.227-0.927c-0.783,0-1.492,0.145-2.131,0.433
		c-0.638,0.288-1.184,0.694-1.636,1.22c-0.453,0.524-0.803,1.152-1.05,1.883c-0.246,0.73-0.37,1.539-0.37,2.424
		c0,0.864,0.128,1.662,0.386,2.393s0.612,1.357,1.064,1.883c0.453,0.524,0.993,0.937,1.621,1.234
		c0.628,0.299,1.312,0.448,2.053,0.448c0.68,0,1.338-0.124,1.977-0.371c0.637-0.246,1.203-0.591,1.697-1.034
		c0.494-0.441,0.885-0.967,1.174-1.574c0.287-0.606,0.432-1.26,0.432-1.96V406.013z"/>
	<path fill="#FFFFFF" d="M374.598,401.536c0.833-0.494,1.826-0.741,2.979-0.741c0.967,0,1.815,0.154,2.547,0.464
		c0.73,0.309,1.337,0.746,1.82,1.312c0.484,0.566,0.85,1.25,1.097,2.053s0.37,1.688,0.37,2.655v7.749
		c0,0.37-0.082,0.623-0.246,0.756c-0.166,0.134-0.382,0.201-0.648,0.201H382.3c-0.268,0-0.483-0.067-0.648-0.201
		c-0.164-0.133-0.246-0.386-0.246-0.756v-7.625c0-1.482-0.346-2.64-1.035-3.474c-0.689-0.833-1.662-1.25-2.917-1.25
		c-1.153,0-2.141,0.288-2.964,0.864s-1.451,1.327-1.883,2.254v9.23c0,0.37-0.082,0.623-0.247,0.756
		c-0.165,0.134-0.382,0.201-0.648,0.201h-0.216c-0.268,0-0.484-0.067-0.648-0.201c-0.165-0.133-0.247-0.386-0.247-0.756v-13.769
		c0-0.041,0.066-0.088,0.2-0.14c0.135-0.051,0.294-0.077,0.479-0.077c0.35,0,0.654,0.124,0.911,0.371s0.386,0.771,0.386,1.574v0.463
		C373.09,402.668,373.765,402.03,374.598,401.536z"/>
	<path fill="#FFFFFF" d="M398.878,402.987c0-0.803,0.128-1.327,0.386-1.574c0.257-0.247,0.561-0.371,0.911-0.371
		c0.185,0,0.344,0.026,0.479,0.077c0.133,0.052,0.2,0.099,0.2,0.14v13.769c0,0.37-0.083,0.623-0.247,0.756
		c-0.165,0.134-0.381,0.201-0.648,0.201h-0.216c-0.268,0-0.483-0.067-0.648-0.201c-0.165-0.133-0.247-0.386-0.247-0.756v-1.574
		c-0.658,0.885-1.431,1.569-2.315,2.053s-1.935,0.726-3.148,0.726c-0.968,0-1.873-0.181-2.717-0.54
		c-0.845-0.36-1.58-0.875-2.208-1.544c-0.627-0.669-1.121-1.477-1.481-2.424c-0.36-0.946-0.54-2.007-0.54-3.18
		c0-1.152,0.174-2.207,0.525-3.164c0.35-0.957,0.844-1.775,1.481-2.454c0.638-0.68,1.39-1.204,2.253-1.574
		c0.865-0.371,1.801-0.557,2.81-0.557c1.317,0,2.438,0.263,3.365,0.788c0.927,0.524,1.595,1.126,2.007,1.806V402.987z
		 M398.878,406.013c-0.475-1.07-1.138-1.914-1.991-2.531c-0.854-0.618-1.93-0.927-3.226-0.927c-0.783,0-1.493,0.145-2.131,0.433
		c-0.639,0.288-1.184,0.694-1.637,1.22c-0.453,0.524-0.803,1.152-1.049,1.883c-0.247,0.73-0.371,1.539-0.371,2.424
		c0,0.864,0.129,1.662,0.387,2.393c0.257,0.73,0.611,1.357,1.064,1.883c0.453,0.524,0.992,0.937,1.621,1.234
		c0.627,0.299,1.312,0.448,2.053,0.448c0.68,0,1.338-0.124,1.976-0.371c0.638-0.246,1.204-0.591,1.698-1.034
		c0.494-0.441,0.885-0.967,1.173-1.574c0.288-0.606,0.433-1.26,0.433-1.96V406.013z"/>
	<path fill="#FFFFFF" d="M405.392,415.783c-0.166-0.133-0.248-0.386-0.248-0.756v-19.974c0-0.041,0.067-0.088,0.201-0.14
		c0.134-0.051,0.293-0.077,0.479-0.077c0.35,0,0.658,0.124,0.926,0.371s0.402,0.771,0.402,1.574v18.245
		c0,0.37-0.083,0.623-0.248,0.756c-0.164,0.134-0.381,0.201-0.648,0.201h-0.215C405.771,415.984,405.556,415.917,405.392,415.783z"
		/>
	<path fill="#FFFFFF" d="M415.022,421.942c-0.288,0-0.539-0.077-0.756-0.231c-0.216-0.154-0.314-0.252-0.293-0.293l2.47-6.298
		c-0.351,0-0.607-0.052-0.772-0.154c-0.164-0.104-0.318-0.31-0.463-0.618l-5.371-12.719c-0.021-0.062,0.051-0.175,0.216-0.34
		c0.165-0.164,0.421-0.247,0.772-0.247c0.35,0,0.633,0.099,0.848,0.294c0.217,0.195,0.438,0.561,0.664,1.096l4.662,11.515
		l4.044-11.453c0.185-0.535,0.396-0.91,0.633-1.127c0.236-0.216,0.52-0.324,0.849-0.324c0.289,0,0.535,0.077,0.741,0.231
		s0.298,0.253,0.278,0.294l-7.101,19.048c-0.206,0.535-0.428,0.89-0.664,1.064C415.542,421.854,415.29,421.942,415.022,421.942z"/>
	<path fill="#FFFFFF" d="M425.581,402.956c-0.371,0-0.623-0.066-0.756-0.2c-0.135-0.134-0.201-0.334-0.201-0.603v-0.185
		c0-0.268,0.066-0.468,0.201-0.603c0.133-0.134,0.385-0.2,0.756-0.2h1.358v-2.562c0-0.37,0.082-0.622,0.247-0.756
		c0.164-0.134,0.381-0.201,0.648-0.201h0.216c0.267,0,0.479,0.067,0.633,0.201s0.231,0.386,0.231,0.756v2.562h3.921
		c0.37,0,0.622,0.066,0.757,0.2c0.133,0.135,0.2,0.335,0.2,0.603v0.185c0,0.269-0.067,0.469-0.2,0.603
		c-0.135,0.134-0.387,0.2-0.757,0.2h-3.921v8.366c0,1.092,0.159,1.895,0.479,2.408c0.318,0.515,0.891,0.771,1.713,0.771
		c0.515,0,0.957-0.097,1.328-0.293c0.371-0.195,0.689-0.458,0.957-0.787c0.041-0.041,0.164,0.016,0.371,0.17
		c0.205,0.154,0.309,0.428,0.309,0.818c0,0.411-0.258,0.817-0.772,1.219s-1.266,0.603-2.253,0.603c-1.441,0-2.486-0.396-3.135-1.188
		c-0.647-0.792-0.972-1.961-0.972-3.504v-8.583H425.581z"/>
	<path fill="#FFFFFF" d="M437.837,397.492c-0.865,0-1.297-0.442-1.297-1.327s0.453-1.328,1.358-1.328
		c0.864,0,1.296,0.443,1.296,1.328S438.742,397.492,437.837,397.492z M437.096,415.783c-0.165-0.133-0.247-0.386-0.247-0.756
		v-13.028c0-0.37,0.082-0.622,0.247-0.756s0.38-0.201,0.648-0.201h0.216c0.268,0,0.483,0.067,0.648,0.201
		c0.164,0.134,0.247,0.386,0.247,0.756v13.028c0,0.37-0.083,0.623-0.247,0.756c-0.165,0.134-0.381,0.201-0.648,0.201h-0.216
		C437.476,415.984,437.261,415.917,437.096,415.783z"/>
	<path fill="#FFFFFF" d="M449.722,416.231c-1.07,0-2.068-0.196-2.994-0.587s-1.729-0.931-2.408-1.621
		c-0.679-0.688-1.209-1.507-1.59-2.454c-0.381-0.946-0.57-1.976-0.57-3.087s0.189-2.135,0.57-3.071s0.911-1.749,1.59-2.439
		c0.68-0.689,1.482-1.224,2.408-1.605c0.926-0.38,1.924-0.571,2.994-0.571s2.002,0.15,2.795,0.448
		c0.791,0.299,1.45,0.663,1.975,1.096c0.525,0.433,0.916,0.88,1.174,1.343c0.257,0.463,0.386,0.859,0.386,1.188
		c0,0.228-0.067,0.407-0.2,0.541c-0.135,0.134-0.283,0.236-0.448,0.309s-0.313,0.113-0.447,0.123
		c-0.134,0.011-0.212,0.006-0.231-0.016c-0.186-0.452-0.422-0.874-0.711-1.266c-0.287-0.391-0.633-0.735-1.033-1.034
		c-0.402-0.298-0.87-0.529-1.404-0.694c-0.536-0.165-1.154-0.247-1.854-0.247c-0.781,0-1.512,0.145-2.191,0.433
		s-1.266,0.694-1.76,1.219c-0.494,0.525-0.88,1.147-1.158,1.868c-0.277,0.721-0.416,1.513-0.416,2.377s0.139,1.657,0.416,2.377
		c0.278,0.721,0.664,1.349,1.158,1.883c0.494,0.536,1.075,0.953,1.744,1.251c0.669,0.299,1.404,0.447,2.207,0.447
		c0.699,0,1.317-0.082,1.854-0.247c0.534-0.164,1.002-0.396,1.404-0.694c0.4-0.298,0.746-0.643,1.033-1.034
		c0.289-0.391,0.525-0.812,0.711-1.266c0.02-0.041,0.098-0.051,0.231-0.031c0.134,0.021,0.282,0.067,0.447,0.139
		c0.165,0.073,0.313,0.176,0.448,0.31c0.133,0.134,0.2,0.313,0.2,0.54c0,0.329-0.129,0.726-0.386,1.188
		c-0.258,0.463-0.648,0.911-1.174,1.343c-0.524,0.433-1.184,0.798-1.975,1.096C451.724,416.082,450.792,416.231,449.722,416.231z"/>
	<path fill="#FFFFFF" d="M464.077,416.231c-0.988,0-1.857-0.104-2.608-0.309c-0.752-0.206-1.38-0.464-1.884-0.772
		s-0.891-0.638-1.157-0.987c-0.268-0.35-0.401-0.659-0.401-0.927c0-0.205,0.051-0.38,0.154-0.524
		c0.104-0.144,0.221-0.263,0.355-0.355c0.133-0.093,0.257-0.154,0.37-0.185c0.112-0.031,0.18-0.036,0.2-0.016
		c0.494,0.679,1.147,1.245,1.961,1.698c0.812,0.452,1.837,0.679,3.072,0.679c1.234,0,2.176-0.227,2.824-0.679
		c0.648-0.453,0.973-1.05,0.973-1.791c0-0.433-0.093-0.792-0.278-1.08c-0.185-0.288-0.463-0.53-0.833-0.726
		c-0.371-0.195-0.824-0.36-1.359-0.494s-1.152-0.272-1.852-0.417c-0.576-0.123-1.168-0.267-1.775-0.432s-1.163-0.396-1.667-0.695
		c-0.505-0.298-0.916-0.684-1.235-1.157c-0.318-0.474-0.479-1.081-0.479-1.821c0-0.659,0.135-1.261,0.402-1.807
		c0.267-0.545,0.648-1.013,1.142-1.404c0.494-0.391,1.085-0.694,1.775-0.911c0.689-0.216,1.456-0.324,2.3-0.324
		c0.905,0,1.693,0.093,2.361,0.278c0.669,0.186,1.235,0.422,1.698,0.71c0.464,0.288,0.808,0.592,1.034,0.911s0.34,0.622,0.34,0.91
		c0,0.186-0.057,0.351-0.17,0.494c-0.113,0.145-0.236,0.263-0.371,0.355c-0.133,0.092-0.257,0.154-0.369,0.185
		c-0.114,0.031-0.182,0.036-0.201,0.016c-0.412-0.638-0.983-1.157-1.713-1.559c-0.731-0.401-1.602-0.603-2.609-0.603
		c-1.215,0-2.135,0.231-2.764,0.694c-0.627,0.464-0.941,1.056-0.941,1.775c0,0.782,0.345,1.338,1.035,1.667
		c0.689,0.33,1.713,0.639,3.071,0.927c0.597,0.123,1.214,0.272,1.853,0.447c0.638,0.175,1.219,0.412,1.744,0.71
		c0.525,0.299,0.957,0.689,1.297,1.173c0.34,0.484,0.509,1.106,0.509,1.868c0,1.358-0.515,2.444-1.544,3.257
		C467.308,415.825,465.888,416.231,464.077,416.231z"/>
</g>
</svg>
