<?xml version="1.0" encoding="utf-8"?>
<!-- Generator: Adobe Illustrator 16.0.0, SVG Export Plug-In . SVG Version: 6.00 Build 0)  -->
<!DOCTYPE svg PUBLIC "-//W3C//DTD SVG 1.1//EN" "http://www.w3.org/Graphics/SVG/1.1/DTD/svg11.dtd">
<svg version="1.1" id="Layer_1" xmlns="http://www.w3.org/2000/svg" xmlns:xlink="http://www.w3.org/1999/xlink" x="0px" y="0px"
	 width="208.215px" height="36.271px" viewBox="198.163 378.159 208.215 36.271"
	 enable-background="new 198.163 378.159 208.215 36.271" xml:space="preserve">
<g>
	<path fill="#C56928" d="M201.862,402.253c0.438,0.969,1.02,1.8,1.748,2.496c0.725,0.696,1.571,1.24,2.54,1.633
		c0.968,0.394,2.026,0.59,3.177,0.59c1.058,0,1.98-0.104,2.767-0.318c0.787-0.21,1.466-0.49,2.042-0.839
		c0.574-0.348,1.074-0.756,1.497-1.225s0.786-0.96,1.089-1.475c0.03-0.03,0.136-0.03,0.318,0c0.182,0.031,0.377,0.113,0.589,0.249
		c0.212,0.137,0.4,0.318,0.567,0.545c0.167,0.227,0.25,0.522,0.25,0.885c0,0.363-0.204,0.824-0.612,1.384
		c-0.408,0.561-0.998,1.09-1.769,1.588c-0.772,0.499-1.724,0.931-2.858,1.293c-1.134,0.363-2.428,0.544-3.879,0.544
		c-1.634,0-3.139-0.271-4.516-0.816c-1.375-0.544-2.555-1.314-3.537-2.313c-0.984-0.997-1.748-2.185-2.292-3.562
		c-0.543-1.376-0.816-2.896-0.816-4.56c0-1.634,0.272-3.153,0.816-4.56c0.544-1.406,1.301-2.616,2.269-3.629
		c0.967-1.013,2.117-1.808,3.449-2.383c1.331-0.574,2.782-0.862,4.354-0.862c1.512,0,2.888,0.258,4.128,0.771
		c1.24,0.516,2.299,1.249,3.177,2.201c0.876,0.952,1.557,2.103,2.041,3.447c0.484,1.347,0.726,2.836,0.726,4.47v0.272
		c0,0.425-0.091,0.695-0.271,0.816c-0.182,0.121-0.5,0.181-0.954,0.181h-16.787C201.174,400.228,201.423,401.285,201.862,402.253z
		 M215.996,396.538c-0.151-2.148-0.84-3.857-2.065-5.128c-1.224-1.271-2.85-1.905-4.877-1.905c-1.029,0-1.981,0.174-2.858,0.521
		c-0.877,0.348-1.655,0.833-2.336,1.452c-0.68,0.62-1.248,1.361-1.701,2.222c-0.454,0.863-0.756,1.809-0.908,2.838H215.996z"/>
	<path fill="#F2673B" d="M201.861,402.257c0.439,0.969,1.021,1.801,1.747,2.496c0.727,0.696,1.572,1.24,2.542,1.634
		c0.968,0.394,2.026,0.59,3.177,0.59c1.058,0,1.981-0.105,2.768-0.317c0.786-0.212,1.468-0.491,2.042-0.84
		c0.574-0.348,1.074-0.756,1.497-1.225c0.423-0.47,0.787-0.961,1.09-1.477c0.03-0.029,0.137-0.029,0.317,0
		c0.183,0.03,0.379,0.113,0.591,0.249c0.21,0.138,0.4,0.319,0.567,0.546c0.167,0.228,0.25,0.521,0.25,0.886
		c0,0.362-0.205,0.823-0.613,1.383c-0.409,0.561-0.999,1.09-1.77,1.588c-0.772,0.501-1.725,0.932-2.859,1.295
		c-1.134,0.362-2.429,0.544-3.88,0.544c-1.634,0-3.14-0.271-4.516-0.817c-1.377-0.545-2.558-1.315-3.54-2.313
		c-0.984-0.999-1.747-2.187-2.293-3.562c-0.543-1.377-0.815-2.897-0.815-4.561c0-1.635,0.272-3.154,0.815-4.562
		c0.546-1.407,1.302-2.616,2.27-3.63c0.968-1.014,2.117-1.809,3.45-2.383c1.331-0.575,2.783-0.862,4.355-0.862
		c1.514,0,2.89,0.257,4.13,0.771c1.24,0.514,2.299,1.249,3.177,2.201c0.876,0.952,1.558,2.103,2.042,3.448
		c0.483,1.346,0.726,2.836,0.726,4.471v0.271c0,0.425-0.091,0.697-0.273,0.818c-0.18,0.12-0.499,0.181-0.952,0.181h-16.792
		C201.172,400.23,201.421,401.288,201.861,402.257z M215.997,396.539c-0.151-2.148-0.839-3.857-2.063-5.129
		c-1.227-1.271-2.854-1.905-4.881-1.905c-1.029,0-1.982,0.174-2.858,0.521c-0.877,0.348-1.656,0.833-2.337,1.453
		c-0.681,0.62-1.248,1.362-1.702,2.223s-0.757,1.809-0.908,2.837H215.997z"/>
	<path fill="#414140" d="M230.974,406.387l6.444-16.928c0.333-0.877,0.659-1.46,0.976-1.748c0.318-0.286,0.704-0.43,1.158-0.43
		c0.514,0,0.893,0.128,1.134,0.385s0.347,0.417,0.317,0.476l-7.941,20.015c-0.152,0.394-0.356,0.688-0.613,0.883
		c-0.258,0.197-0.765,0.298-1.52,0.298c-0.756,0-1.242-0.085-1.453-0.25c-0.211-0.166-0.394-0.445-0.544-0.842l-8.033-20.104
		c-0.03-0.091,0.076-0.257,0.318-0.499c0.242-0.241,0.619-0.362,1.134-0.362c0.515,0,0.931,0.144,1.248,0.43
		c0.317,0.288,0.643,0.871,0.977,1.748L230.974,406.387z"/>
	<path fill="#414140" d="M258.385,395.404c0-1.876-0.522-3.306-1.566-4.288c-1.044-0.983-2.549-1.476-4.515-1.476
		c-1.756,0-3.193,0.386-4.312,1.157c-1.12,0.772-1.982,1.718-2.587,2.837c-0.364-0.061-0.643-0.143-0.84-0.251
		c-0.196-0.104-0.386-0.278-0.566-0.521c-0.182-0.242-0.272-0.56-0.272-0.953c0-0.394,0.189-0.87,0.567-1.43
		c0.377-0.559,0.937-1.104,1.679-1.634c0.741-0.528,1.664-0.983,2.768-1.361c1.104-0.379,2.367-0.567,3.789-0.567
		c2.752,0,4.902,0.741,6.445,2.224c1.544,1.482,2.314,3.54,2.314,6.171v13.613c0,0.062-0.098,0.13-0.294,0.205
		c-0.198,0.075-0.431,0.113-0.702,0.113c-0.516,0-0.954-0.181-1.317-0.544c-0.364-0.363-0.544-1.134-0.544-2.314v-0.817
		c-0.848,1.271-1.975,2.255-3.38,2.95c-1.408,0.695-2.973,1.044-4.698,1.044c-2.359,0-4.191-0.553-5.491-1.656
		c-1.301-1.104-1.952-2.564-1.952-4.379c0-2.543,1.248-4.373,3.745-5.492c2.495-1.118,6.253-1.739,11.276-1.861h0.455V395.404z
		 M250.624,407.113c1.119,0,2.148-0.167,3.085-0.499c0.938-0.333,1.755-0.795,2.451-1.386c0.697-0.59,1.24-1.285,1.635-2.086
		c0.392-0.803,0.591-1.688,0.591-2.655v-1.997l-1.271,0.045c-3.721,0.153-6.52,0.591-8.396,1.316
		c-1.876,0.727-2.814,1.951-2.814,3.677c0,1.089,0.416,1.958,1.249,2.609C247.984,406.788,249.141,407.113,250.624,407.113z"/>
	<path fill="#414140" d="M267.779,408.95c-0.243-0.195-0.362-0.566-0.362-1.112v-29.361c0-0.06,0.097-0.129,0.293-0.204
		c0.197-0.076,0.432-0.113,0.704-0.113c0.516,0,0.969,0.182,1.363,0.544c0.393,0.364,0.588,1.135,0.588,2.315v26.819
		c0,0.546-0.121,0.917-0.361,1.112c-0.244,0.197-0.562,0.295-0.954,0.295h-0.316C268.338,409.245,268.02,409.147,267.779,408.95z"/>
	<path fill="#414140" d="M289.448,408.52c-1.225,0.726-2.686,1.089-4.379,1.089c-1.421,0-2.67-0.228-3.744-0.682
		c-1.073-0.453-1.967-1.096-2.677-1.928c-0.712-0.831-1.249-1.838-1.611-3.019c-0.363-1.18-0.545-2.479-0.545-3.901v-11.392
		c0-0.545,0.121-0.915,0.363-1.111c0.241-0.197,0.56-0.295,0.954-0.295h0.316c0.393,0,0.712,0.098,0.954,0.295
		c0.244,0.196,0.364,0.566,0.364,1.111v11.209c0,2.178,0.521,3.881,1.566,5.105c1.043,1.226,2.532,1.839,4.469,1.839
		c1.573,0,2.958-0.424,4.153-1.271c1.195-0.848,2.111-1.951,2.746-3.312v-13.569c0-0.545,0.12-0.915,0.363-1.111
		c0.242-0.197,0.56-0.295,0.953-0.295h0.318c0.392,0,0.709,0.098,0.954,0.295c0.24,0.196,0.362,0.566,0.362,1.111v20.239
		c0,0.062-0.1,0.13-0.297,0.205c-0.195,0.075-0.428,0.113-0.703,0.113c-0.513,0-0.96-0.181-1.338-0.544
		c-0.379-0.363-0.568-1.134-0.568-2.314v-0.682C291.664,406.854,290.673,407.794,289.448,408.52z"/>
	<path fill="#414140" d="M303.652,402.257c0.439,0.969,1.023,1.801,1.748,2.496c0.726,0.696,1.573,1.24,2.542,1.634
		s2.026,0.59,3.178,0.59c1.059,0,1.982-0.105,2.768-0.317c0.787-0.212,1.467-0.491,2.043-0.84c0.574-0.348,1.072-0.756,1.498-1.225
		c0.422-0.47,0.787-0.961,1.088-1.477c0.03-0.029,0.137-0.029,0.318,0c0.181,0.03,0.377,0.113,0.59,0.249
		c0.211,0.138,0.399,0.319,0.566,0.546c0.167,0.228,0.25,0.521,0.25,0.886c0,0.362-0.204,0.823-0.611,1.383
		c-0.41,0.561-1,1.09-1.771,1.588c-0.772,0.501-1.724,0.932-2.86,1.295c-1.133,0.362-2.426,0.544-3.879,0.544
		c-1.634,0-3.141-0.271-4.518-0.817c-1.375-0.545-2.555-1.315-3.539-2.313c-0.984-0.999-1.747-2.187-2.291-3.562
		c-0.545-1.377-0.817-2.897-0.817-4.561c0-1.635,0.272-3.154,0.817-4.562c0.544-1.407,1.299-2.616,2.269-3.63
		c0.967-1.014,2.119-1.809,3.449-2.383c1.332-0.575,2.783-0.862,4.356-0.862c1.513,0,2.89,0.257,4.131,0.771
		c1.24,0.514,2.299,1.249,3.177,2.201c0.878,0.952,1.557,2.103,2.042,3.448c0.483,1.346,0.726,2.836,0.726,4.471v0.271
		c0,0.425-0.089,0.697-0.271,0.818c-0.183,0.12-0.499,0.181-0.953,0.181h-16.792C302.966,400.23,303.214,401.288,303.652,402.257z
		 M317.79,396.539c-0.152-2.148-0.84-3.857-2.065-5.129c-1.225-1.271-2.851-1.905-4.879-1.905c-1.027,0-1.98,0.174-2.857,0.521
		c-0.88,0.348-1.658,0.833-2.338,1.453c-0.682,0.62-1.249,1.362-1.702,2.223c-0.455,0.861-0.757,1.809-0.908,2.837H317.79z"/>
	<g>
		<path fill="#414140" d="M337.316,403.302c0-0.866-0.241-1.526-0.723-1.981c-0.482-0.453-1.178-0.681-2.086-0.681
			c-0.811,0-1.475,0.178-1.991,0.534s-0.915,0.793-1.194,1.311c-0.168-0.028-0.297-0.066-0.388-0.115
			c-0.092-0.049-0.179-0.129-0.263-0.241s-0.125-0.259-0.125-0.44s0.087-0.401,0.262-0.66s0.433-0.51,0.775-0.755
			c0.342-0.244,0.769-0.453,1.278-0.628s1.094-0.263,1.75-0.263c1.271,0,2.264,0.343,2.977,1.027s1.069,1.635,1.069,2.851v6.288
			c0,0.028-0.046,0.06-0.137,0.094c-0.091,0.035-0.199,0.053-0.324,0.053c-0.238,0-0.44-0.084-0.608-0.252
			c-0.168-0.167-0.251-0.523-0.251-1.068v-0.378c-0.392,0.587-0.912,1.041-1.562,1.363c-0.649,0.32-1.372,0.481-2.169,0.481
			c-1.09,0-1.936-0.255-2.536-0.765s-0.901-1.185-0.901-2.022c0-1.174,0.577-2.02,1.729-2.536c1.152-0.518,2.889-0.804,5.209-0.859
			h0.209V403.302z M333.732,408.709c0.517,0,0.992-0.076,1.425-0.23c0.434-0.153,0.811-0.367,1.132-0.64s0.573-0.594,0.755-0.964
			s0.272-0.778,0.272-1.226v-0.923l-0.587,0.021c-1.719,0.069-3.011,0.272-3.878,0.607c-0.866,0.336-1.299,0.901-1.299,1.698
			c0,0.503,0.191,0.904,0.576,1.205C332.513,408.56,333.048,408.709,333.732,408.709z"/>
		<path fill="#414140" d="M343.887,399.885c0.566-0.335,1.24-0.503,2.023-0.503c0.656,0,1.232,0.104,1.729,0.314
			s0.908,0.507,1.237,0.891c0.328,0.385,0.576,0.85,0.743,1.395c0.168,0.545,0.252,1.146,0.252,1.802v5.262
			c0,0.251-0.056,0.422-0.168,0.513c-0.111,0.091-0.258,0.137-0.439,0.137h-0.147c-0.182,0-0.328-0.046-0.439-0.137
			c-0.112-0.091-0.168-0.262-0.168-0.513v-5.178c0-1.006-0.234-1.792-0.702-2.357c-0.469-0.566-1.129-0.85-1.98-0.85
			c-0.783,0-1.453,0.196-2.013,0.587c-0.559,0.392-0.984,0.901-1.278,1.53v6.268c0,0.251-0.056,0.422-0.168,0.513
			c-0.111,0.091-0.258,0.137-0.439,0.137h-0.147c-0.182,0-0.328-0.046-0.439-0.137c-0.112-0.091-0.168-0.262-0.168-0.513v-9.349
			c0-0.027,0.045-0.06,0.136-0.094c0.091-0.035,0.199-0.053,0.325-0.053c0.237,0,0.443,0.084,0.618,0.251
			c0.175,0.168,0.263,0.524,0.263,1.069v0.314C342.863,400.653,343.321,400.221,343.887,399.885z"/>
		<path fill="#414140" d="M358.905,403.302c0-0.866-0.241-1.526-0.724-1.981c-0.482-0.453-1.178-0.681-2.086-0.681
			c-0.811,0-1.474,0.178-1.99,0.534c-0.518,0.356-0.916,0.793-1.195,1.311c-0.168-0.028-0.297-0.066-0.388-0.115
			s-0.178-0.129-0.262-0.241s-0.126-0.259-0.126-0.44s0.087-0.401,0.262-0.66s0.434-0.51,0.775-0.755
			c0.343-0.244,0.769-0.453,1.279-0.628c0.51-0.175,1.093-0.263,1.75-0.263c1.271,0,2.264,0.343,2.977,1.027
			c0.712,0.685,1.068,1.635,1.068,2.851v6.288c0,0.028-0.045,0.06-0.136,0.094c-0.091,0.035-0.199,0.053-0.325,0.053
			c-0.238,0-0.44-0.084-0.607-0.252c-0.168-0.167-0.252-0.523-0.252-1.068v-0.378c-0.392,0.587-0.912,1.041-1.562,1.363
			c-0.649,0.32-1.373,0.481-2.169,0.481c-1.09,0-1.936-0.255-2.536-0.765c-0.602-0.51-0.901-1.185-0.901-2.022
			c0-1.174,0.576-2.02,1.729-2.536c1.153-0.518,2.89-0.804,5.209-0.859h0.21V403.302z M355.32,408.709
			c0.518,0,0.992-0.076,1.426-0.23c0.433-0.153,0.811-0.367,1.132-0.64s0.572-0.594,0.755-0.964c0.181-0.37,0.272-0.778,0.272-1.226
			v-0.923l-0.587,0.021c-1.719,0.069-3.012,0.272-3.878,0.607c-0.866,0.336-1.3,0.901-1.3,1.698c0,0.503,0.192,0.904,0.576,1.205
			C354.102,408.56,354.636,408.709,355.32,408.709z"/>
		<path fill="#414140" d="M363.033,409.558c-0.111-0.091-0.167-0.262-0.167-0.513v-13.562c0-0.028,0.045-0.059,0.136-0.094
			c0.091-0.035,0.199-0.052,0.325-0.052c0.237,0,0.447,0.084,0.629,0.251s0.272,0.524,0.272,1.069v12.388
			c0,0.251-0.057,0.422-0.168,0.513s-0.259,0.137-0.439,0.137h-0.147C363.292,409.694,363.146,409.648,363.033,409.558z"/>
		<path fill="#414140" d="M369.363,413.739c-0.195,0-0.366-0.052-0.514-0.157c-0.146-0.104-0.213-0.171-0.199-0.199l1.678-4.275
			c-0.238,0-0.413-0.035-0.524-0.104c-0.112-0.07-0.217-0.21-0.314-0.42l-3.647-8.635c-0.014-0.042,0.035-0.119,0.147-0.23
			c0.111-0.112,0.286-0.168,0.523-0.168s0.43,0.066,0.577,0.199c0.146,0.133,0.296,0.381,0.45,0.744l3.165,7.817l2.746-7.775
			c0.125-0.363,0.269-0.619,0.43-0.766c0.16-0.146,0.353-0.22,0.576-0.22c0.195,0,0.363,0.053,0.503,0.157s0.202,0.171,0.188,0.199
			l-4.82,12.932c-0.141,0.363-0.291,0.604-0.451,0.724C369.716,413.68,369.545,413.739,369.363,413.739z"/>
		<path fill="#414140" d="M376.322,400.85c-0.252,0-0.423-0.046-0.514-0.137c-0.092-0.091-0.137-0.227-0.137-0.408v-0.126
			c0-0.182,0.045-0.317,0.137-0.409c0.091-0.091,0.262-0.136,0.514-0.136h0.922v-1.74c0-0.251,0.056-0.422,0.168-0.513
			c0.111-0.091,0.258-0.137,0.439-0.137h0.146c0.182,0,0.325,0.046,0.43,0.137c0.105,0.091,0.158,0.262,0.158,0.513v1.74h2.661
			c0.252,0,0.423,0.045,0.514,0.136c0.091,0.092,0.137,0.228,0.137,0.409v0.126c0,0.182-0.046,0.317-0.137,0.408
			s-0.262,0.137-0.514,0.137h-2.661v5.68c0,0.741,0.107,1.286,0.324,1.635c0.217,0.35,0.604,0.524,1.163,0.524
			c0.35,0,0.65-0.066,0.901-0.199c0.252-0.133,0.469-0.311,0.65-0.534c0.027-0.028,0.111,0.01,0.251,0.115
			c0.14,0.104,0.21,0.29,0.21,0.555c0,0.28-0.175,0.556-0.524,0.828s-0.859,0.409-1.53,0.409c-0.978,0-1.687-0.27-2.127-0.808
			c-0.44-0.537-0.66-1.331-0.66-2.379v-5.826H376.322z"/>
		<path fill="#414140" d="M384.434,397.14c-0.588,0-0.881-0.301-0.881-0.901s0.308-0.901,0.922-0.901
			c0.587,0,0.881,0.301,0.881,0.901S385.048,397.14,384.434,397.14z M383.93,409.558c-0.111-0.091-0.167-0.262-0.167-0.513v-8.846
			c0-0.251,0.056-0.422,0.167-0.514c0.112-0.09,0.259-0.136,0.44-0.136h0.146c0.182,0,0.328,0.046,0.44,0.136
			c0.111,0.092,0.168,0.263,0.168,0.514v8.846c0,0.251-0.057,0.422-0.168,0.513c-0.112,0.091-0.259,0.137-0.44,0.137h-0.146
			C384.188,409.694,384.042,409.648,383.93,409.558z"/>
		<path fill="#414140" d="M392.293,409.862c-0.727,0-1.404-0.134-2.033-0.398c-0.629-0.266-1.174-0.632-1.635-1.101
			c-0.461-0.468-0.821-1.023-1.079-1.666c-0.259-0.643-0.388-1.342-0.388-2.097c0-0.754,0.129-1.449,0.388-2.085
			c0.258-0.636,0.618-1.188,1.079-1.656c0.461-0.468,1.006-0.831,1.635-1.09c0.629-0.258,1.307-0.388,2.033-0.388
			s1.359,0.102,1.896,0.304c0.538,0.203,0.985,0.451,1.342,0.744c0.356,0.294,0.622,0.598,0.797,0.912
			c0.174,0.314,0.262,0.584,0.262,0.807c0,0.154-0.046,0.276-0.137,0.367s-0.191,0.161-0.304,0.209
			c-0.111,0.05-0.213,0.077-0.304,0.084c-0.091,0.008-0.144,0.004-0.157-0.01c-0.126-0.308-0.286-0.594-0.482-0.859
			c-0.195-0.266-0.429-0.5-0.702-0.702c-0.272-0.203-0.59-0.36-0.953-0.472c-0.363-0.112-0.783-0.168-1.258-0.168
			c-0.531,0-1.027,0.098-1.488,0.293c-0.461,0.196-0.859,0.472-1.194,0.828s-0.598,0.779-0.786,1.269s-0.283,1.026-0.283,1.613
			s0.095,1.125,0.283,1.614s0.451,0.915,0.786,1.278c0.335,0.364,0.729,0.646,1.185,0.85c0.453,0.202,0.953,0.304,1.498,0.304
			c0.475,0,0.895-0.056,1.258-0.168c0.363-0.111,0.681-0.269,0.953-0.472c0.273-0.202,0.507-0.437,0.702-0.702
			c0.196-0.266,0.356-0.552,0.482-0.859c0.014-0.027,0.066-0.034,0.157-0.021s0.192,0.045,0.304,0.094
			c0.112,0.05,0.213,0.119,0.304,0.21s0.137,0.213,0.137,0.367c0,0.224-0.088,0.492-0.262,0.807
			c-0.175,0.314-0.44,0.618-0.797,0.912c-0.356,0.293-0.804,0.541-1.342,0.743C393.652,409.761,393.02,409.862,392.293,409.862z"/>
		<path fill="#414140" d="M401.83,409.862c-0.671,0-1.262-0.07-1.771-0.21c-0.511-0.14-0.937-0.314-1.278-0.524
			c-0.343-0.209-0.604-0.433-0.786-0.67s-0.272-0.447-0.272-0.629c0-0.14,0.034-0.259,0.104-0.356s0.15-0.179,0.241-0.241
			s0.175-0.104,0.251-0.126c0.077-0.021,0.123-0.024,0.137-0.01c0.335,0.461,0.778,0.845,1.331,1.152
			c0.552,0.308,1.247,0.461,2.085,0.461c0.839,0,1.479-0.153,1.918-0.461c0.44-0.308,0.66-0.713,0.66-1.216
			c0-0.293-0.062-0.538-0.188-0.733s-0.314-0.359-0.565-0.492c-0.252-0.133-0.56-0.245-0.923-0.336s-0.782-0.185-1.257-0.283
			c-0.392-0.083-0.794-0.181-1.206-0.293c-0.412-0.111-0.789-0.269-1.132-0.472c-0.342-0.202-0.621-0.464-0.838-0.786
			c-0.217-0.321-0.325-0.733-0.325-1.236c0-0.447,0.091-0.855,0.272-1.227c0.182-0.37,0.44-0.688,0.775-0.953
			c0.336-0.266,0.737-0.472,1.205-0.618c0.469-0.147,0.989-0.221,1.562-0.221c0.614,0,1.148,0.063,1.603,0.188
			c0.454,0.126,0.839,0.287,1.153,0.482c0.314,0.196,0.548,0.402,0.702,0.618c0.153,0.217,0.23,0.423,0.23,0.618
			c0,0.126-0.039,0.238-0.115,0.336c-0.077,0.098-0.161,0.178-0.252,0.241c-0.091,0.062-0.175,0.104-0.251,0.125
			c-0.077,0.021-0.123,0.024-0.137,0.011c-0.279-0.433-0.667-0.786-1.163-1.059s-1.087-0.408-1.771-0.408
			c-0.825,0-1.45,0.157-1.877,0.472c-0.426,0.313-0.639,0.716-0.639,1.205c0,0.531,0.233,0.908,0.702,1.132
			c0.468,0.224,1.163,0.433,2.085,0.629c0.405,0.083,0.824,0.185,1.258,0.304c0.434,0.118,0.828,0.279,1.185,0.481
			c0.356,0.203,0.649,0.469,0.88,0.797s0.346,0.751,0.346,1.268c0,0.923-0.349,1.66-1.048,2.212
			C404.023,409.586,403.059,409.862,401.83,409.862z"/>
	</g>
</g>
</svg>
