<svg xmlns="http://www.w3.org/2000/svg" viewBox="196.761 377.161 207.607 35.577" enable-background="new 196.761 377.161 207.607 35.577"><path fill="#B16701" d="M200.46 401.254c.44.97 1.02 1.8 1.748 2.496.725.695 1.572 1.24 2.54 1.633s2.026.59 3.177.59c1.058 0 1.98-.105 2.768-.318.785-.21 1.467-.49 2.04-.84.575-.346 1.073-.754 1.5-1.225.42-.47.782-.96 1.087-1.473.03-.03.137-.03.317 0 .183.03.378.113.59.248.212.137.4.318.567.545.166.227.25.52.25.885s-.205.824-.613 1.385c-.407.56-.997 1.088-1.77 1.586-.77.5-1.722.932-2.856 1.293-1.135.362-2.428.544-3.88.544-1.634 0-3.138-.27-4.515-.816-1.376-.545-2.556-1.316-3.538-2.314-.985-.998-1.748-2.184-2.293-3.56-.544-1.378-.815-2.897-.815-4.562 0-1.632.27-3.152.814-4.558.544-1.406 1.3-2.617 2.27-3.63.966-1.013 2.116-1.808 3.446-2.382 1.332-.574 2.783-.86 4.355-.86 1.515 0 2.89.255 4.13.77 1.24.515 2.3 1.247 3.177 2.2.876.953 1.558 2.104 2.042 3.447.48 1.347.724 2.837.724 4.47v.27c0 .424-.092.695-.27.816-.184.12-.5.182-.954.182h-16.787c.06 1.15.31 2.207.747 3.176zm14.135-5.716c-.152-2.146-.84-3.855-2.066-5.127-1.224-1.27-2.85-1.903-4.878-1.903-1.027 0-1.98.174-2.857.52-.878.35-1.656.833-2.337 1.452-.68.62-1.247 1.36-1.702 2.222-.453.863-.754 1.81-.906 2.836h14.745z"/><path fill="#FF6527" d="M200.46 401.258c.44.97 1.02 1.8 1.746 2.496.727.695 1.572 1.24 2.543 1.633.966.395 2.024.59 3.175.59 1.058 0 1.98-.104 2.768-.318.787-.21 1.47-.49 2.043-.84.572-.35 1.072-.757 1.497-1.224.423-.47.788-.96 1.09-1.477.028-.03.136-.03.317 0 .184.03.377.112.592.25.21.134.398.317.564.544.168.227.25.52.25.885s-.203.823-.613 1.382c-.406.56-.996 1.09-1.768 1.59-.773.5-1.725.93-2.86 1.293-1.135.363-2.43.545-3.88.545-1.635 0-3.14-.27-4.516-.818-1.378-.543-2.56-1.314-3.54-2.312-.984-1-1.748-2.188-2.293-3.562-.543-1.377-.816-2.898-.816-4.56 0-1.635.274-3.155.817-4.563.545-1.406 1.3-2.615 2.27-3.63s2.117-1.808 3.45-2.382c1.33-.574 2.782-.863 4.354-.863 1.516 0 2.89.258 4.132.77 1.24.517 2.3 1.25 3.178 2.202.875.953 1.557 2.104 2.043 3.45.482 1.345.725 2.835.725 4.47v.27c0 .424-.092.697-.273.818-.18.12-.498.18-.95.18H199.71c.06 1.15.31 2.21.75 3.178zm14.135-5.718c-.15-2.148-.84-3.857-2.062-5.13-1.227-1.27-2.854-1.903-4.88-1.903-1.028 0-1.982.174-2.858.52-.878.35-1.657.833-2.338 1.452-.68.62-1.248 1.362-1.7 2.224-.456.86-.76 1.81-.91 2.836h14.748z"/><path fill="#40403F" d="M229.573 405.387l6.44-16.925c.335-.88.66-1.46.98-1.748.316-.287.703-.432 1.156-.432.515 0 .892.13 1.134.385.242.258.346.418.316.477l-7.94 20.015c-.153.392-.356.687-.614.882-.256.197-.764.297-1.52.297-.757 0-1.24-.085-1.453-.25-.21-.167-.393-.446-.543-.84l-8.033-20.106c-.03-.09.076-.256.318-.498.24-.242.617-.363 1.133-.363s.932.145 1.248.432c.318.287.645.87.977 1.748l6.4 16.924zM256.983 394.405c0-1.875-.52-3.305-1.566-4.287-1.043-.984-2.55-1.475-4.514-1.475-1.758 0-3.193.385-4.312 1.156s-1.98 1.716-2.585 2.835c-.365-.06-.645-.143-.842-.25-.195-.105-.385-.28-.566-.52s-.272-.56-.272-.954c0-.392.19-.868.567-1.43.377-.558.936-1.103 1.68-1.632.74-.53 1.664-.982 2.768-1.36s2.367-.57 3.79-.57c2.75 0 4.9.743 6.444 2.226 1.545 1.482 2.313 3.54 2.313 6.172v13.613c0 .06-.1.128-.294.204-.197.074-.432.113-.703.113-.514 0-.953-.182-1.316-.545-.365-.363-.545-1.135-.545-2.314v-.816c-.85 1.27-1.976 2.256-3.38 2.95-1.408.694-2.975 1.044-4.7 1.044-2.358 0-4.19-.553-5.49-1.656-1.3-1.105-1.952-2.564-1.952-4.38 0-2.542 1.248-4.372 3.746-5.49 2.496-1.12 6.252-1.74 11.275-1.862h.454v-.773zm-7.76 11.708c1.118 0 2.15-.166 3.085-.498.938-.332 1.756-.795 2.45-1.385.698-.59 1.24-1.285 1.634-2.088.395-.803.592-1.688.592-2.654v-1.998l-1.27.045c-3.722.152-6.52.592-8.396 1.316-1.877.728-2.814 1.952-2.814 3.68 0 1.087.416 1.956 1.248 2.608.83.65 1.987.975 3.47.975zM266.378 407.95c-.244-.194-.363-.565-.363-1.11v-29.363c0-.06.098-.127.293-.203.197-.076.432-.113.703-.113.517 0 .972.183 1.364.544.393.363.588 1.137.588 2.316v26.82c0 .545-.12.916-.36 1.11-.245.198-.562.296-.954.296h-.316c-.395 0-.714-.098-.954-.295zM288.046 407.52c-1.223.727-2.686 1.09-4.38 1.09-1.42 0-2.67-.227-3.743-.682-1.072-.453-1.967-1.096-2.676-1.928-.713-.832-1.25-1.838-1.61-3.02-.364-1.18-.546-2.48-.546-3.9v-11.392c0-.545.122-.914.363-1.11s.562-.296.954-.296h.314c.396 0 .716.098.956.295.243.197.363.566.363 1.11v11.21c0 2.177.52 3.88 1.565 5.105 1.043 1.227 2.533 1.84 4.47 1.84 1.57 0 2.956-.424 4.15-1.27s2.112-1.952 2.747-3.313v-13.57c0-.546.12-.915.363-1.112.242-.197.56-.295.953-.295h.318c.393 0 .71.098.953.295.24.197.36.566.36 1.11v20.24c0 .062-.1.13-.295.206-.197.074-.43.113-.703.113-.514 0-.96-.182-1.338-.545-.38-.363-.57-1.135-.57-2.314v-.68c-.75 1.147-1.742 2.087-2.968 2.812zM302.25 401.258c.44.97 1.022 1.8 1.75 2.496.724.695 1.57 1.24 2.54 1.633.967.395 2.025.59 3.178.59 1.06 0 1.98-.104 2.768-.318.787-.21 1.467-.49 2.043-.84.573-.35 1.07-.757 1.497-1.224.422-.47.787-.96 1.088-1.477.03-.03.137-.03.318 0 .18.03.377.112.59.25.21.134.398.317.564.544.168.227.25.52.25.885s-.203.823-.61 1.382c-.41.56-1 1.09-1.77 1.59-.772.5-1.725.93-2.86 1.293-1.135.363-2.427.545-3.88.545-1.634 0-3.14-.27-4.517-.818-1.376-.543-2.555-1.314-3.54-2.312-.983-1-1.747-2.188-2.29-3.562-.546-1.377-.818-2.898-.818-4.56 0-1.635.272-3.155.818-4.563.543-1.406 1.3-2.615 2.27-3.63.967-1.013 2.117-1.808 3.447-2.382 1.332-.574 2.783-.863 4.357-.863 1.513 0 2.89.258 4.13.77 1.24.517 2.3 1.25 3.177 2.202.88.953 1.558 2.104 2.044 3.45.482 1.345.725 2.835.725 4.47v.27c0 .424-.09.697-.272.818-.182.12-.498.18-.953.18h-16.79c.058 1.15.308 2.21.746 3.178zm14.14-5.718c-.153-2.148-.842-3.857-2.066-5.13-1.227-1.27-2.852-1.903-4.88-1.903-1.027 0-1.98.174-2.856.52-.88.35-1.658.833-2.338 1.452-.682.62-1.248 1.362-1.703 2.224-.453.86-.756 1.81-.906 2.836h14.75z"/><g fill="#40403F"><path d="M335.915 402.3c0-.866-.24-1.526-.724-1.98-.48-.454-1.177-.682-2.085-.682-.81 0-1.474.178-1.99.534-.518.356-.916.793-1.195 1.31-.168-.027-.297-.065-.388-.114s-.178-.13-.262-.24-.126-.26-.126-.44.087-.402.262-.66.434-.51.775-.756c.344-.244.77-.453 1.28-.628s1.093-.263 1.75-.263c1.27 0 2.264.344 2.977 1.028.712.685 1.068 1.635 1.068 2.85v6.29c0 .027-.045.06-.136.093-.092.036-.2.054-.326.054-.238 0-.44-.084-.607-.252-.168-.167-.252-.523-.252-1.068v-.378c-.392.587-.912 1.04-1.562 1.363-.65.32-1.373.48-2.17.48-1.09 0-1.935-.255-2.535-.765-.602-.51-.9-1.185-.9-2.022 0-1.174.575-2.02 1.728-2.536 1.153-.518 2.89-.804 5.21-.86h.21v-.357zm-3.585 5.407c.518 0 .992-.076 1.426-.23.433-.153.81-.367 1.132-.64s.572-.594.755-.964c.18-.37.272-.778.272-1.226v-.923l-.587.02c-1.72.07-3.012.273-3.878.608-.866.336-1.3.9-1.3 1.698 0 .503.192.904.576 1.205.385.303.92.452 1.604.452zM342.485 398.883c.565-.335 1.24-.503 2.022-.503.656 0 1.233.104 1.73.314.494.21.907.507 1.235.89.328.386.576.85.744 1.396s.252 1.146.252 1.802v5.262c0 .25-.057.422-.168.513-.112.09-.26.137-.44.137h-.146c-.182 0-.328-.046-.44-.137s-.167-.262-.167-.513v-5.178c0-1.006-.234-1.792-.703-2.357-.468-.567-1.128-.85-1.98-.85-.782 0-1.453.195-2.012.586-.56.392-.985.9-1.278 1.53v6.268c0 .25-.057.422-.168.513-.112.09-.26.137-.44.137h-.146c-.182 0-.328-.046-.44-.137s-.167-.262-.167-.513v-9.35c0-.026.045-.06.136-.093.09-.034.198-.052.324-.052.237 0 .443.084.618.25.175.17.262.525.262 1.07v.314c.348-.53.806-.963 1.37-1.3zM357.503 402.3c0-.866-.24-1.526-.723-1.98-.482-.454-1.178-.682-2.086-.682-.81 0-1.475.178-1.99.534-.52.356-.916.793-1.195 1.31-.17-.027-.3-.065-.39-.114-.09-.05-.178-.13-.262-.24-.083-.113-.125-.26-.125-.44s.087-.402.262-.66.433-.51.775-.756c.343-.244.77-.453 1.278-.628s1.094-.263 1.75-.263c1.27 0 2.264.344 2.977 1.028s1.07 1.635 1.07 2.85v6.29c0 .027-.047.06-.138.093-.09.036-.2.054-.325.054-.237 0-.44-.084-.607-.252-.168-.167-.252-.523-.252-1.068v-.378c-.39.587-.91 1.04-1.56 1.363-.65.32-1.374.48-2.17.48-1.09 0-1.937-.255-2.537-.765s-.9-1.185-.9-2.022c0-1.174.575-2.02 1.728-2.536 1.152-.518 2.89-.804 5.208-.86h.21v-.357zm-3.584 5.407c.516 0 .99-.076 1.424-.23.434-.153.81-.367 1.132-.64s.573-.594.755-.964.273-.778.273-1.226v-.923l-.587.02c-1.72.07-3.012.273-3.877.608-.868.336-1.3.9-1.3 1.698 0 .503.19.904.575 1.205.384.303.92.452 1.604.452zM361.632 408.556c-.112-.09-.168-.262-.168-.513V394.48c0-.027.046-.058.137-.093.092-.035.2-.052.326-.052.237 0 .446.084.628.25s.272.525.272 1.07v12.388c0 .25-.056.422-.167.513-.113.09-.26.137-.44.137h-.147c-.182 0-.33-.047-.44-.137zM367.962 412.737c-.196 0-.367-.052-.514-.157-.146-.104-.214-.17-.2-.2l1.678-4.274c-.238 0-.412-.035-.524-.104-.11-.07-.217-.21-.313-.42l-3.648-8.635c-.015-.042.034-.12.146-.23.112-.112.286-.168.524-.168.237 0 .43.065.576.198s.297.38.45.744l3.165 7.817 2.746-7.776c.125-.363.268-.62.43-.766.16-.146.352-.22.575-.22.195 0 .363.053.503.157s.202.17.188.2l-4.82 12.93c-.14.364-.29.605-.45.725-.162.118-.333.177-.514.177zM374.92 399.848c-.252 0-.423-.046-.514-.137s-.136-.226-.136-.407v-.126c0-.182.045-.317.136-.41.09-.09.262-.135.514-.135h.922v-1.74c0-.25.056-.422.168-.513.11-.092.26-.137.44-.137h.146c.182 0 .325.045.43.136.104.09.157.26.157.512v1.74h2.662c.25 0 .422.045.514.136.09.092.135.228.135.41v.125c0 .182-.046.317-.136.408-.093.092-.264.138-.515.138h-2.662v5.68c0 .74.108 1.286.325 1.635.216.35.604.524 1.163.524.35 0 .65-.066.902-.2.25-.132.468-.31.65-.533.027-.028.11.01.25.115.14.103.21.29.21.554 0 .28-.175.556-.523.828-.35.272-.86.41-1.53.41-.98 0-1.69-.27-2.13-.81-.438-.536-.66-1.33-.66-2.378v-5.826h-.92zM383.03 396.137c-.586 0-.88-.3-.88-.9s.308-.902.923-.902c.587 0 .88.3.88.9s-.307.902-.922.902zm-.502 12.42c-.112-.092-.168-.263-.168-.514v-8.846c0-.25.056-.422.168-.514.11-.09.26-.136.44-.136h.146c.182 0 .328.046.44.136.11.092.167.263.167.514v8.846c0 .25-.055.422-.166.513-.112.09-.26.137-.44.137h-.146c-.18 0-.328-.047-.44-.137zM390.892 408.86c-.728 0-1.404-.134-2.033-.398-.63-.266-1.175-.632-1.636-1.1-.462-.47-.82-1.024-1.08-1.667s-.388-1.342-.388-2.097c0-.754.13-1.45.388-2.085s.618-1.188 1.08-1.656c.46-.468 1.006-.83 1.635-1.09.628-.258 1.305-.388 2.032-.388.726 0 1.358.1 1.896.303.538.203.985.45 1.342.744.356.294.62.598.796.912s.262.583.262.806c0 .154-.045.276-.136.367s-.192.16-.304.21c-.112.05-.213.076-.305.083-.09.008-.143.004-.156-.01-.126-.308-.287-.594-.482-.86-.196-.265-.43-.5-.702-.7-.272-.204-.59-.36-.954-.473-.364-.112-.783-.168-1.258-.168-.53 0-1.027.098-1.488.293-.462.196-.86.472-1.195.828-.336.356-.598.78-.787 1.27-.188.488-.282 1.025-.282 1.612s.095 1.125.283 1.614c.19.49.45.915.786 1.278.335.364.73.646 1.184.85.454.202.953.304 1.5.304.474 0 .893-.056 1.256-.168.363-.11.682-.27.954-.472.272-.202.506-.437.702-.702.195-.266.356-.552.482-.86.014-.026.065-.033.156-.02.092.014.192.045.305.094.11.05.212.12.303.21s.136.213.136.367c0 .224-.088.492-.263.807s-.44.618-.796.912c-.355.293-.803.54-1.34.743-.54.204-1.173.305-1.898.305zM400.428 408.86c-.67 0-1.262-.07-1.77-.21s-.937-.314-1.28-.524c-.342-.21-.603-.433-.785-.67s-.272-.447-.272-.63c0-.14.036-.258.105-.355.07-.097.15-.178.24-.24s.176-.104.253-.126c.076-.02.122-.024.136-.01.336.46.78.845 1.33 1.152s1.248.46 2.087.46c.84 0 1.48-.152 1.92-.46.438-.308.66-.713.66-1.216 0-.293-.064-.538-.19-.733-.125-.195-.313-.36-.565-.492-.25-.133-.56-.245-.922-.336s-.783-.186-1.258-.284c-.392-.083-.793-.18-1.205-.293-.412-.11-.79-.27-1.132-.472-.343-.2-.622-.463-.84-.785-.216-.32-.323-.733-.323-1.236 0-.448.09-.856.272-1.228.18-.37.44-.688.775-.953s.736-.473 1.205-.62c.468-.146.988-.22 1.562-.22.613 0 1.148.063 1.603.188.454.126.838.287 1.152.482.314.196.55.402.702.618.154.217.23.423.23.618 0 .126-.038.238-.115.336s-.16.178-.25.24c-.092.063-.176.105-.253.126-.078.02-.123.024-.137.01-.28-.432-.668-.785-1.163-1.058-.496-.272-1.087-.408-1.77-.408-.825 0-1.45.157-1.877.472-.427.313-.64.716-.64 1.205 0 .53.234.907.702 1.13.47.225 1.164.434 2.086.63.406.083.825.185 1.26.304.432.118.826.28 1.183.48.356.204.65.47.88.798s.347.75.347 1.268c0 .923-.35 1.66-1.048 2.212-.7.552-1.665.828-2.894.828z"/></g></svg>