<svg xmlns="http://www.w3.org/2000/svg" viewBox="264.958 159.715 94.511 97.73" enable-background="new 264.958 159.715 94.511 97.73"><g fill="#fff"><path d="M264.958 183.924h20.985v73.52h-20.985zM276.104 179.42c-5.45 0-9.852-4.402-9.852-9.853 0-5.438 4.428-9.853 9.852-9.853 5.438 0 9.84 4.415 9.84 9.853 0 5.45-4.402 9.852-9.84 9.852zM359.47 257.445h-21.013v-45.467c0-5.334-1.502-9.05-8.066-9.05-10.834 0-12.932 9.05-12.932 9.05v45.467h-21.002v-73.52h21.002v7.03c3.004-2.306 10.513-7.018 21-7.018 6.82 0 21.01 4.065 21.01 28.688v44.82z"/></g></svg>