<svg xmlns="http://www.w3.org/2000/svg" viewBox="0 0 12.182 9.901" enable-background="new 0 0 12.182 9.901"><path fill="#fff" d="M10.934 2.465c.006.107.008.214.008.323 0 3.303-2.516 7.113-7.11 7.113-1.413 0-2.728-.415-3.83-1.124.192.025.392.035.593.035 1.174 0 2.25-.4 3.104-1.067C2.603 7.723 1.68 7 1.362 6.005c.152.03.31.046.47.046.23 0 .45-.03.66-.088C1.35 5.732.487 4.722.487 3.512v-.03c.338.186.72.298 1.13.312C.95 3.346.51 2.58.51 1.714c0-.458.12-.888.336-1.256C2.078 1.97 3.92 2.965 6 3.068c-.047-.184-.07-.375-.07-.57C5.93 1.118 7.05 0 8.432 0c.72 0 1.367.304 1.824.788.57-.11 1.104-.32 1.588-.606-.186.583-.586 1.074-1.1 1.383.504-.06.988-.194 1.438-.394-.336.5-.76.942-1.248 1.295z"/></svg>