<svg xmlns="http://www.w3.org/2000/svg" viewBox="222.936 129.777 177.063 173.932" enable-background="new 222.936 129.777 177.063 173.932"><g fill="#fff"><path d="M400 216.6H370.4v29.594h-18.804V216.6h-29.604v-18.806h29.604V168.17h18.804v29.624H400zM323.708 130.79v-1.013H278.25c-.433.03-45.912 1.707-45.912 43.367 0 14.755 4.92 25.43 14.64 31.68 7.955 5.12 17.213 5.9 21.986 5.9 1.187 0 2.14-.028 2.72-.115 0 0-1.505 9.95 5.845 19.76h-.32c-12.73 0-54.273 2.66-54.273 36.828 0 34.717 38.16 36.51 45.826 36.51h2.489c4.918 0 17.618-.636 29.423-6.335 15.275-7.436 23.035-20.34 23.035-38.392 0-17.473-11.81-27.858-20.46-35.438-5.267-4.6-9.81-8.62-9.81-12.498 0-3.964 3.328-6.915 7.553-10.704 6.77-6.076 13.22-14.727 13.22-31.1 0-14.41-1.88-24.07-13.394-30.205 1.243-.607 5.437-1.07 7.55-1.36 6.218-.838 15.338-1.822 15.338-6.885zm-18.03 131.432c.868 13.887-11.022 24.157-28.873 25.46-18.11 1.33-33.067-6.857-33.937-20.715-.404-6.683 2.518-13.222 8.275-18.43 5.844-5.265 13.8-8.534 22.508-9.17.984-.06 2.055-.116 3.038-.116 16.81 0 28.18 9.866 28.99 22.972zm-24.853-63.474c-1.243.348-2.487.52-3.848.52-9.777 0-19.527-9.95-23.145-23.664-2.024-7.638-1.88-14.407.463-20.858 2.258-6.365 6.365-10.676 11.516-12.122 1.216-.348 2.488-.52 3.79-.52 11.86 0 19.47 4.946 24.215 21.553 4.456 15.68-2.314 32.054-12.99 35.09z"/></g></svg>